<?xml version="1.0" encoding="UTF-8"?>
<!DOCTYPE svg PUBLIC "-//W3C//DTD SVG 1.1//EN" "http://www.w3.org/Graphics/SVG/1.1/DTD/svg11.dtd">
<svg xmlns="http://www.w3.org/2000/svg" version="1.1" width="429px" height="429px" style="shape-rendering:geometricPrecision; text-rendering:geometricPrecision; image-rendering:optimizeQuality; fill-rule:evenodd; clip-rule:evenodd" xmlns:xlink="http://www.w3.org/1999/xlink">
<g><path style="opacity:0.998" fill="#fefefe" d="M 77.5,9.5 C 168.167,9.33334 258.834,9.5 349.5,10C 387.212,17.3786 410.045,39.8786 418,77.5C 418.667,168.5 418.667,259.5 418,350.5C 410.054,388.112 387.221,410.612 349.5,418C 258.833,418.667 168.167,418.667 77.5,418C 48.0152,413.005 27.1819,396.838 15,369.5C 12.5509,363.37 10.8843,357.037 10,350.5C 9.33333,259.833 9.33333,169.167 10,78.5C 17.5728,40.7617 40.0728,17.7617 77.5,9.5 Z"/></g>
<g><path style="opacity:1" fill="#f6f6f5" d="M 298.5,112.5 C 316.587,115.403 334.587,118.737 352.5,122.5C 352.129,128.076 351.129,133.409 349.5,138.5C 331.878,134.136 314.211,130.469 296.5,127.5C 296.842,122.452 297.508,117.452 298.5,112.5 Z"/></g>
<g><path style="opacity:1" fill="#a6a8a6" d="M 355.5,121.5 C 354.209,121.263 353.209,121.596 352.5,122.5C 334.587,118.737 316.587,115.403 298.5,112.5C 298.158,111.662 297.492,111.328 296.5,111.5C 296.791,110.351 297.624,109.684 299,109.5C 318.096,112.82 336.93,116.82 355.5,121.5 Z"/></g>
<g><path style="opacity:1" fill="#393c39" d="M 304.5,117.5 C 307.001,117.511 307.168,118.178 305,119.5C 304.719,122.097 304.552,124.43 304.5,126.5C 301.981,123.545 301.981,120.545 304.5,117.5 Z"/></g>
<g><path style="opacity:1" fill="#84918d" d="M 296.5,111.5 C 297.492,111.328 298.158,111.662 298.5,112.5C 297.508,117.452 296.842,122.452 296.5,127.5C 295.227,128.077 295.227,128.743 296.5,129.5C 298.657,130.05 300.657,130.717 302.5,131.5C 300.076,131.192 297.743,131.526 295.5,132.5C 296.602,133.176 297.602,133.842 298.5,134.5C 296.585,134.216 294.919,134.549 293.5,135.5C 293.384,138.86 293.051,142.193 292.5,145.5C 294.751,146.015 296.751,147.015 298.5,148.5C 297.391,148.443 296.391,148.11 295.5,147.5C 294.5,147.5 293.5,147.5 292.5,147.5C 292.527,149.199 293.194,150.533 294.5,151.5C 293.209,151.263 292.209,151.596 291.5,152.5C 289.096,157.486 288.262,162.819 289,168.5C 290.812,169.977 292.645,171.31 294.5,172.5C 292.435,172.483 290.435,172.15 288.5,171.5C 286.676,168.154 286.01,164.487 286.5,160.5C 286.5,159.833 286.833,159.5 287.5,159.5C 289.349,155.577 289.682,151.577 288.5,147.5C 288.5,147.167 288.5,146.833 288.5,146.5C 291.589,134.906 294.256,123.239 296.5,111.5 Z"/></g>
<g><path style="opacity:1" fill="#474947" d="M 333.5,123.5 C 334.189,122.226 335.023,122.226 336,123.5C 337.08,125.996 338.414,128.33 340,130.5C 340.667,131.5 340.667,132.5 340,133.5C 338.058,129.931 335.892,126.598 333.5,123.5 Z"/></g>
<g><path style="opacity:1" fill="#939492" d="M 333.5,126.5 C 334.793,128.364 334.793,130.364 333.5,132.5C 333.08,130.674 333.08,128.674 333.5,126.5 Z"/></g>
<g><path style="opacity:1" fill="#d2db9e" d="M 296.5,127.5 C 314.211,130.469 331.878,134.136 349.5,138.5C 349.672,139.492 349.338,140.158 348.5,140.5C 348.167,140.5 347.833,140.5 347.5,140.5C 347.389,139.883 347.056,139.383 346.5,139C 343.854,138.503 341.187,138.336 338.5,138.5C 326.67,135.969 314.67,133.636 302.5,131.5C 300.657,130.717 298.657,130.05 296.5,129.5C 295.227,128.743 295.227,128.077 296.5,127.5 Z"/></g>
<g><path style="opacity:1" fill="#bdcd8a" d="M 293.5,135.5 C 294.919,134.549 296.585,134.216 298.5,134.5C 305.194,136.559 312.194,137.893 319.5,138.5C 321.333,138.585 322.666,139.252 323.5,140.5C 313.141,140.281 303.141,138.615 293.5,135.5 Z"/></g>
<g><path style="opacity:1" fill="#67a28b" d="M 338.5,138.5 C 341.187,138.336 343.854,138.503 346.5,139C 347.056,139.383 347.389,139.883 347.5,140.5C 344.345,140.01 341.345,139.344 338.5,138.5 Z"/></g>
<g><path style="opacity:1" fill="#2591c6" d="M 302.5,131.5 C 314.67,133.636 326.67,135.969 338.5,138.5C 341.345,139.344 344.345,140.01 347.5,140.5C 347.833,140.5 348.167,140.5 348.5,140.5C 349.914,142.598 349.248,143.598 346.5,143.5C 344.5,143.5 342.5,143.5 340.5,143.5C 339.833,143.5 339.167,143.5 338.5,143.5C 333.939,140.982 328.939,139.982 323.5,140.5C 322.666,139.252 321.333,138.585 319.5,138.5C 312.194,137.893 305.194,136.559 298.5,134.5C 297.602,133.842 296.602,133.176 295.5,132.5C 297.743,131.526 300.076,131.192 302.5,131.5 Z"/></g>
<g><path style="opacity:1" fill="#f9f8f2" d="M 293.5,135.5 C 303.141,138.615 313.141,140.281 323.5,140.5C 323.611,141.117 323.944,141.617 324.5,142C 329.137,142.829 333.804,143.329 338.5,143.5C 339.167,143.5 339.833,143.5 340.5,143.5C 342.635,145.369 345.302,146.036 348.5,145.5C 348.3,148.63 347.634,151.63 346.5,154.5C 338.689,152.767 330.689,151.767 322.5,151.5C 321.486,150.235 319.986,149.569 318,149.5C 314.183,148.931 310.349,148.597 306.5,148.5C 306.167,148.5 305.833,148.5 305.5,148.5C 305.119,147.069 304.119,146.236 302.5,146C 299.183,145.502 295.85,145.335 292.5,145.5C 293.051,142.193 293.384,138.86 293.5,135.5 Z"/></g>
<g><path style="opacity:1" fill="#cbd388" d="M 323.5,140.5 C 328.939,139.982 333.939,140.982 338.5,143.5C 333.804,143.329 329.137,142.829 324.5,142C 323.944,141.617 323.611,141.117 323.5,140.5 Z"/></g>
<g><path style="opacity:1" fill="#87d2a2" d="M 184.5,143.5 C 178.5,143.5 172.5,143.5 166.5,143.5C 163.5,143.5 160.5,143.5 157.5,143.5C 151.828,143.76 146.161,144.093 140.5,144.5C 142.292,143.691 144.292,143.191 146.5,143C 159.34,142.173 172.007,142.34 184.5,143.5 Z"/></g>
<g><path style="opacity:1" fill="#bac77c" d="M 340.5,143.5 C 342.5,143.5 344.5,143.5 346.5,143.5C 347.167,144.167 347.833,144.833 348.5,145.5C 345.302,146.036 342.635,145.369 340.5,143.5 Z"/></g>
<g><path style="opacity:1" fill="#11be52" d="M 157.5,143.5 C 157.918,144.222 158.584,144.722 159.5,145C 155.5,145.667 155.5,146.333 159.5,147C 157.699,147.317 157.366,147.984 158.5,149C 159.825,148.852 160.992,149.018 162,149.5C 162.977,151.74 163.477,154.073 163.5,156.5C 167.182,156.335 170.848,156.501 174.5,157C 174.42,159.28 175.087,161.613 176.5,164C 176.384,165.268 176.051,166.602 175.5,168C 177.441,168.743 179.274,168.576 181,167.5C 181.605,170.908 182.938,173.908 185,176.5C 187.08,174.027 189.246,174.027 191.5,176.5C 193.409,175.652 195.409,175.318 197.5,175.5C 196.013,176.804 194.346,177.97 192.5,179C 190.859,180.129 189.859,181.629 189.5,183.5C 188.542,183.953 187.708,184.619 187,185.5C 186.302,188.004 185.469,190.337 184.5,192.5C 183.527,194.948 183.194,197.615 183.5,200.5C 177.865,201.037 172.532,200.37 167.5,198.5C 167.741,196.102 167.074,194.102 165.5,192.5C 164.522,189.522 162.522,187.522 159.5,186.5C 157.574,185.514 155.574,184.514 153.5,183.5C 151.031,182.683 148.365,182.183 145.5,182C 146.423,179.959 146.756,177.792 146.5,175.5C 143.5,175.5 140.5,175.5 137.5,175.5C 137.5,171.5 137.5,167.5 137.5,163.5C 133.123,163.423 128.79,162.923 124.5,162C 124.833,161.667 125.167,161.333 125.5,161C 124.809,159.933 124.309,158.766 124,157.5C 123.692,158.308 123.192,158.975 122.5,159.5C 121.376,158.086 120.376,156.586 119.5,155C 120.971,153.417 121.971,151.583 122.5,149.5C 128.212,146.904 134.212,145.238 140.5,144.5C 146.161,144.093 151.828,143.76 157.5,143.5 Z"/></g>
<g><path style="opacity:1" fill="#13bd46" d="M 157.5,143.5 C 160.5,143.5 163.5,143.5 166.5,143.5C 176.372,144.253 185.705,147.086 194.5,152C 201.78,156.135 207.447,162.301 211.5,170.5C 211.137,171.183 210.804,171.85 210.5,172.5C 207.513,172.998 204.513,173.498 201.5,174C 200.944,174.383 200.611,174.883 200.5,175.5C 200.167,175.5 199.833,175.5 199.5,175.5C 198.833,175.5 198.167,175.5 197.5,175.5C 195.409,175.318 193.409,175.652 191.5,176.5C 189.246,174.027 187.08,174.027 185,176.5C 182.938,173.908 181.605,170.908 181,167.5C 179.274,168.576 177.441,168.743 175.5,168C 176.051,166.602 176.384,165.268 176.5,164C 175.087,161.613 174.42,159.28 174.5,157C 170.848,156.501 167.182,156.335 163.5,156.5C 163.477,154.073 162.977,151.74 162,149.5C 160.992,149.018 159.825,148.852 158.5,149C 157.366,147.984 157.699,147.317 159.5,147C 155.5,146.333 155.5,145.667 159.5,145C 158.584,144.722 157.918,144.222 157.5,143.5 Z"/></g>
<g><path style="opacity:1" fill="#e0e29e" d="M 292.5,145.5 C 295.85,145.335 299.183,145.502 302.5,146C 304.119,146.236 305.119,147.069 305.5,148.5C 303.167,148.5 300.833,148.5 298.5,148.5C 296.751,147.015 294.751,146.015 292.5,145.5 Z"/></g>
<g><path style="opacity:1" fill="#0fb34b" d="M 166.5,143.5 C 172.5,143.5 178.5,143.5 184.5,143.5C 199.009,144.218 211.676,149.218 222.5,158.5C 221.1,159.1 220.1,160.1 219.5,161.5C 218.542,163.302 217.875,165.302 217.5,167.5C 215.787,168.635 215.12,170.302 215.5,172.5C 213.833,172.5 212.167,172.5 210.5,172.5C 210.804,171.85 211.137,171.183 211.5,170.5C 207.447,162.301 201.78,156.135 194.5,152C 185.705,147.086 176.372,144.253 166.5,143.5 Z"/></g>
<g><path style="opacity:1" fill="#1dba30" d="M 288.5,146.5 C 288.5,146.833 288.5,147.167 288.5,147.5C 287.728,151.452 287.395,155.452 287.5,159.5C 286.833,159.5 286.5,159.833 286.5,160.5C 285.838,162.304 285.505,164.304 285.5,166.5C 285.291,169.454 285.958,172.121 287.5,174.5C 291.368,176.105 295.368,177.105 299.5,177.5C 303.626,177.572 307.626,178.239 311.5,179.5C 311.5,180.5 311.5,181.5 311.5,182.5C 321.67,183.271 331.67,183.271 341.5,182.5C 342.5,181.833 343.5,181.167 344.5,180.5C 346.416,176.837 347.416,172.837 347.5,168.5C 349.179,168.285 350.179,168.952 350.5,170.5C 349.883,170.389 349.383,170.056 349,169.5C 348.318,174.477 347.151,178.977 345.5,183C 344.5,183.333 343.5,183.667 342.5,184C 331.631,184.022 320.798,184.189 310,184.5C 309.5,184.333 309,184.167 308.5,184C 309.308,183.692 309.975,183.192 310.5,182.5C 304.281,178.6 297.781,177.933 291,180.5C 289.667,179.833 288.667,178.833 288,177.5C 286.69,179.132 286.19,180.799 286.5,182.5C 285.624,183.251 284.624,183.751 283.5,184C 290.362,184.691 297.028,186.191 303.5,188.5C 304.086,188.291 304.586,187.957 305,187.5C 305.813,189.436 306.313,191.436 306.5,193.5C 303.718,190.776 300.385,189.109 296.5,188.5C 294.012,186.612 291.012,185.945 287.5,186.5C 282.695,185.513 277.695,185.179 272.5,185.5C 272.382,188.688 271.549,191.688 270,194.5C 269,194.833 268,195.167 267,195.5C 266.501,198.022 266.668,200.522 267.5,203C 267.032,208.808 264.365,210.141 259.5,207C 258.833,205.333 258.167,203.667 257.5,202C 253.645,201.964 251.145,200.131 250,196.5C 249.548,193.123 248.882,189.789 248,186.5C 247.617,185.944 247.117,185.611 246.5,185.5C 243.758,181.589 240.258,178.589 236,176.5C 237.064,170.905 237.897,165.238 238.5,159.5C 237.5,159.5 236.5,159.5 235.5,159.5C 235.5,159.167 235.5,158.833 235.5,158.5C 236.756,154.644 238.089,150.81 239.5,147C 255.83,146.5 272.163,146.333 288.5,146.5 Z"/></g>
<g><path style="opacity:1" fill="#1391d4" d="M 295.5,147.5 C 297.372,149.062 299.705,150.062 302.5,150.5C 301.311,151.429 299.978,151.762 298.5,151.5C 297.167,151.5 295.833,151.5 294.5,151.5C 293.194,150.533 292.527,149.199 292.5,147.5C 293.5,147.5 294.5,147.5 295.5,147.5 Z"/></g>
<g><path style="opacity:1" fill="#bacb88" d="M 306.5,148.5 C 310.349,148.597 314.183,148.931 318,149.5C 319.986,149.569 321.486,150.235 322.5,151.5C 318.785,151.577 315.119,151.244 311.5,150.5C 309.219,150.923 307.552,150.256 306.5,148.5 Z"/></g>
<g><path style="opacity:1" fill="#4797a6" d="M 311.5,150.5 C 315.119,151.244 318.785,151.577 322.5,151.5C 323.167,152.167 323.833,152.833 324.5,153.5C 320.528,152.892 316.528,152.392 312.5,152C 311.944,151.617 311.611,151.117 311.5,150.5 Z"/></g>
<g><path style="opacity:1" fill="#ccd181" d="M 291.5,152.5 C 292.209,151.596 293.209,151.263 294.5,151.5C 295.833,151.5 297.167,151.5 298.5,151.5C 298.833,152.167 299.167,152.833 299.5,153.5C 296.763,153.599 294.096,153.265 291.5,152.5 Z"/></g>
<g><path style="opacity:1" fill="#d1d894" d="M 322.5,151.5 C 330.689,151.767 338.689,152.767 346.5,154.5C 346.5,155.833 345.833,156.5 344.5,156.5C 337.934,155.073 331.268,154.073 324.5,153.5C 323.833,152.833 323.167,152.167 322.5,151.5 Z"/></g>
<g><path style="opacity:1" fill="#4e8649" d="M 288.5,147.5 C 289.682,151.577 289.349,155.577 287.5,159.5C 287.395,155.452 287.728,151.452 288.5,147.5 Z"/></g>
<g><path style="opacity:1" fill="#757f78" d="M 355.5,121.5 C 354.241,131.912 352.574,142.246 350.5,152.5C 349.778,152.918 349.278,153.584 349,154.5C 347.501,162.491 346.001,170.491 344.5,178.5C 343.508,178.328 342.842,178.662 342.5,179.5C 341.833,179.5 341.167,179.5 340.5,179.5C 343.318,174.634 344.652,169.301 344.5,163.5C 345.757,162.377 345.424,161.711 343.5,161.5C 343.5,161.167 343.5,160.833 343.5,160.5C 345.62,159.597 345.954,158.263 344.5,156.5C 345.833,156.5 346.5,155.833 346.5,154.5C 347.634,151.63 348.3,148.63 348.5,145.5C 347.833,144.833 347.167,144.167 346.5,143.5C 349.248,143.598 349.914,142.598 348.5,140.5C 349.338,140.158 349.672,139.492 349.5,138.5C 351.129,133.409 352.129,128.076 352.5,122.5C 353.209,121.596 354.209,121.263 355.5,121.5 Z"/></g>
<g><path style="opacity:1" fill="#f5f5f3" d="M 291.5,152.5 C 294.096,153.265 296.763,153.599 299.5,153.5C 299.833,153.5 300.167,153.5 300.5,153.5C 300.611,154.117 300.944,154.617 301.5,155C 311.342,157.414 321.342,158.914 331.5,159.5C 334.123,161.265 337.123,161.932 340.5,161.5C 340.833,161.5 341.167,161.5 341.5,161.5C 341.821,163.048 342.821,163.715 344.5,163.5C 344.652,169.301 343.318,174.634 340.5,179.5C 331.423,179.518 322.423,178.685 313.5,177C 307.327,174.859 300.993,173.359 294.5,172.5C 292.645,171.31 290.812,169.977 289,168.5C 288.262,162.819 289.096,157.486 291.5,152.5 Z"/></g>
<g><path style="opacity:1" fill="#2892c5" d="M 295.5,147.5 C 296.391,148.11 297.391,148.443 298.5,148.5C 300.833,148.5 303.167,148.5 305.5,148.5C 305.833,148.5 306.167,148.5 306.5,148.5C 307.552,150.256 309.219,150.923 311.5,150.5C 311.611,151.117 311.944,151.617 312.5,152C 316.528,152.392 320.528,152.892 324.5,153.5C 331.268,154.073 337.934,155.073 344.5,156.5C 345.954,158.263 345.62,159.597 343.5,160.5C 338.244,159.081 332.911,158.081 327.5,157.5C 318.658,155.416 309.658,154.083 300.5,153.5C 300.167,153.5 299.833,153.5 299.5,153.5C 299.167,152.833 298.833,152.167 298.5,151.5C 299.978,151.762 301.311,151.429 302.5,150.5C 299.705,150.062 297.372,149.062 295.5,147.5 Z"/></g>
<g><path style="opacity:1" fill="#0dbf5b" d="M 122.5,149.5 C 121.971,151.583 120.971,153.417 119.5,155C 120.376,156.586 121.376,158.086 122.5,159.5C 123.192,158.975 123.692,158.308 124,157.5C 124.309,158.766 124.809,159.933 125.5,161C 125.167,161.333 124.833,161.667 124.5,162C 128.79,162.923 133.123,163.423 137.5,163.5C 137.5,167.5 137.5,171.5 137.5,175.5C 140.5,175.5 143.5,175.5 146.5,175.5C 146.756,177.792 146.423,179.959 145.5,182C 148.365,182.183 151.031,182.683 153.5,183.5C 143.576,183.14 134.909,186.14 127.5,192.5C 126.859,191.518 126.193,190.518 125.5,189.5C 121.204,188.672 116.871,188.172 112.5,188C 111.594,186.301 111.261,184.467 111.5,182.5C 105.951,184.074 103.951,182.074 105.5,176.5C 107.527,176.662 109.527,176.495 111.5,176C 106.833,175.667 102.167,175.333 97.5,175C 99.7898,174.21 100.123,172.876 98.5,171C 99.117,168.116 99.7837,165.283 100.5,162.5C 106.836,156.658 114.169,152.325 122.5,149.5 Z"/></g>
<g><path style="opacity:1" fill="#cad590" d="M 300.5,153.5 C 309.658,154.083 318.658,155.416 327.5,157.5C 328.833,158.167 330.167,158.833 331.5,159.5C 321.342,158.914 311.342,157.414 301.5,155C 300.944,154.617 300.611,154.117 300.5,153.5 Z"/></g>
<g><path style="opacity:1" fill="#99996a" d="M 224.5,158.5 C 228.167,158.5 231.833,158.5 235.5,158.5C 235.5,158.833 235.5,159.167 235.5,159.5C 234.833,159.5 234.5,159.833 234.5,160.5C 231.813,160.664 229.146,160.497 226.5,160C 225.584,159.722 224.918,159.222 224.5,158.5 Z"/></g>
<g><path style="opacity:1" fill="#0a8a21" d="M 350.5,152.5 C 360.827,156.827 368.16,164.16 372.5,174.5C 374.123,178.327 375.123,182.327 375.5,186.5C 376.802,202.275 374.135,217.275 367.5,231.5C 367.167,231.5 366.833,231.5 366.5,231.5C 366.714,229.856 366.38,228.356 365.5,227C 370.022,223.741 371.189,219.575 369,214.5C 368.667,216.5 368.333,218.5 368,220.5C 367.333,219.167 366.667,219.167 366,220.5C 365.667,219.833 365.333,219.167 365,218.5C 361.265,221.87 357.765,221.536 354.5,217.5C 355.86,214.38 356.693,211.047 357,207.5C 357.333,201.5 357.667,195.5 358,189.5C 358.692,188.975 359.192,188.308 359.5,187.5C 357.289,183.386 355.456,178.719 354,173.5C 353.31,172.262 352.81,172.262 352.5,173.5C 351.599,172.71 350.932,171.71 350.5,170.5C 350.179,168.952 349.179,168.285 347.5,168.5C 347.416,172.837 346.416,176.837 344.5,180.5C 344.5,179.833 344.5,179.167 344.5,178.5C 346.001,170.491 347.501,162.491 349,154.5C 349.278,153.584 349.778,152.918 350.5,152.5 Z"/></g>
<g><path style="opacity:1" fill="#dcdb88" d="M 331.5,159.5 C 334.727,159.676 337.727,160.343 340.5,161.5C 337.123,161.932 334.123,161.265 331.5,159.5 Z"/></g>
<g><path style="opacity:1" fill="#78aa88" d="M 327.5,157.5 C 332.911,158.081 338.244,159.081 343.5,160.5C 343.5,160.833 343.5,161.167 343.5,161.5C 342.833,161.5 342.167,161.5 341.5,161.5C 341.167,161.5 340.833,161.5 340.5,161.5C 337.727,160.343 334.727,159.676 331.5,159.5C 330.167,158.833 328.833,158.167 327.5,157.5 Z"/></g>
<g><path style="opacity:1" fill="#997d1c" d="M 233.5,171.5 C 233.338,173.527 233.505,175.527 234,177.5C 239.628,179.464 243.628,183.131 246,188.5C 247.109,193.005 245.942,196.672 242.5,199.5C 242.392,197.217 241.559,195.217 240,193.5C 233.987,185.987 227.154,179.321 219.5,173.5C 218.833,173.167 218.167,172.833 217.5,172.5C 217.5,170.833 217.5,169.167 217.5,167.5C 217.875,165.302 218.542,163.302 219.5,161.5C 220.416,161.018 221.416,160.685 222.5,160.5C 227.805,162.629 231.472,166.296 233.5,171.5 Z"/></g>
<g><path style="opacity:1" fill="#e9ebac" d="M 341.5,161.5 C 342.167,161.5 342.833,161.5 343.5,161.5C 345.424,161.711 345.757,162.377 344.5,163.5C 342.821,163.715 341.821,163.048 341.5,161.5 Z"/></g>
<g><path style="opacity:1" fill="#b2a144" d="M 222.5,158.5 C 223.167,158.5 223.833,158.5 224.5,158.5C 224.918,159.222 225.584,159.722 226.5,160C 229.146,160.497 231.813,160.664 234.5,160.5C 235.5,160.5 236.5,160.5 237.5,160.5C 237.223,164.644 235.89,168.311 233.5,171.5C 231.472,166.296 227.805,162.629 222.5,160.5C 221.416,160.685 220.416,161.018 219.5,161.5C 220.1,160.1 221.1,159.1 222.5,158.5 Z"/></g>
<g><path style="opacity:1" fill="#595c58" d="M 297.5,157.5 C 298.837,160.53 298.503,163.53 296.5,166.5C 296.167,166.333 295.833,166.167 295.5,166C 296.482,163.262 297.148,160.428 297.5,157.5 Z"/></g>
<g><path style="opacity:1" fill="#626462" d="M 302.5,158.5 C 302.583,161.084 302.583,163.75 302.5,166.5C 301.643,165.264 300.977,163.931 300.5,162.5C 301.63,161.378 302.297,160.044 302.5,158.5 Z"/></g>
<g><path style="opacity:1" fill="#272927" d="M 331.5,169.5 C 331.5,170.167 331.167,170.5 330.5,170.5C 330.643,168.738 330.309,167.071 329.5,165.5C 329.833,165.167 330.167,164.833 330.5,164.5C 331.452,166.045 331.785,167.712 331.5,169.5 Z"/></g>
<g><path style="opacity:1" fill="#1f8d26" d="M 286.5,160.5 C 286.01,164.487 286.676,168.154 288.5,171.5C 290.72,172.979 293.054,174.312 295.5,175.5C 296.833,176.167 298.167,176.833 299.5,177.5C 295.368,177.105 291.368,176.105 287.5,174.5C 285.958,172.121 285.291,169.454 285.5,166.5C 285.505,164.304 285.838,162.304 286.5,160.5 Z"/></g>
<g><path style="opacity:1" fill="#1bba22" d="M 350.5,170.5 C 350.932,171.71 351.599,172.71 352.5,173.5C 356.301,187.751 356.468,202.084 353,216.5C 351.628,220.814 349.795,224.814 347.5,228.5C 345.616,228.712 344.283,229.712 343.5,231.5C 342.276,230.234 340.943,229.067 339.5,228C 336.471,227.461 333.471,226.794 330.5,226C 329.656,223.3 328.656,220.633 327.5,218C 327.735,217.127 328.069,216.293 328.5,215.5C 324.792,214.752 320.792,213.919 316.5,213C 315.636,211.152 315.636,208.986 316.5,206.5C 316.167,205.5 315.5,204.833 314.5,204.5C 314.181,206.645 313.348,208.979 312,211.5C 309.913,207.153 309.413,202.653 310.5,198C 309.473,197.487 308.473,196.987 307.5,196.5C 306.833,196.5 306.5,196.167 306.5,195.5C 306.5,194.833 306.5,194.167 306.5,193.5C 306.313,191.436 305.813,189.436 305,187.5C 304.586,187.957 304.086,188.291 303.5,188.5C 297.028,186.191 290.362,184.691 283.5,184C 284.624,183.751 285.624,183.251 286.5,182.5C 286.19,180.799 286.69,179.132 288,177.5C 288.667,178.833 289.667,179.833 291,180.5C 297.781,177.933 304.281,178.6 310.5,182.5C 309.975,183.192 309.308,183.692 308.5,184C 309,184.167 309.5,184.333 310,184.5C 320.798,184.189 331.631,184.022 342.5,184C 343.5,183.667 344.5,183.333 345.5,183C 347.151,178.977 348.318,174.477 349,169.5C 349.383,170.056 349.883,170.389 350.5,170.5 Z"/></g>
<g><path style="opacity:1" fill="#757674" d="M 331.5,169.5 C 332.788,171.035 332.788,172.701 331.5,174.5C 330.571,173.311 330.238,171.978 330.5,170.5C 331.167,170.5 331.5,170.167 331.5,169.5 Z"/></g>
<g><path style="opacity:1" fill="#437e31" d="M 217.5,167.5 C 217.5,169.167 217.5,170.833 217.5,172.5C 215.521,174.168 213.188,174.834 210.5,174.5C 207.119,174.46 203.786,174.793 200.5,175.5C 200.611,174.883 200.944,174.383 201.5,174C 204.513,173.498 207.513,172.998 210.5,172.5C 212.167,172.5 213.833,172.5 215.5,172.5C 215.12,170.302 215.787,168.635 217.5,167.5 Z"/></g>
<g><path style="opacity:1" fill="#f1ef8b" d="M 210.5,174.5 C 213.144,177.48 215.811,180.48 218.5,183.5C 216.031,184.168 213.698,184.835 211.5,185.5C 210.094,185.973 209.427,186.973 209.5,188.5C 208.732,187.737 208.232,186.737 208,185.5C 204.634,182.916 201.467,180.25 198.5,177.5C 198.833,176.833 199.167,176.167 199.5,175.5C 199.833,175.5 200.167,175.5 200.5,175.5C 203.786,174.793 207.119,174.46 210.5,174.5 Z"/></g>
<g><path style="opacity:1" fill="#2e7327" d="M 234.5,160.5 C 234.5,159.833 234.833,159.5 235.5,159.5C 236.5,159.5 237.5,159.5 238.5,159.5C 237.897,165.238 237.064,170.905 236,176.5C 240.258,178.589 243.758,181.589 246.5,185.5C 249.864,196.981 245.53,203.147 233.5,204C 243.951,210.08 247.285,218.914 243.5,230.5C 236.084,239.598 226.417,244.431 214.5,245C 213.261,248.782 212.095,252.615 211,256.5C 208.619,257.435 206.119,257.768 203.5,257.5C 202.833,257.5 202.167,257.5 201.5,257.5C 199.5,256.833 197.5,256.167 195.5,255.5C 195.5,255.167 195.5,254.833 195.5,254.5C 200.659,255.532 205.659,255.532 210.5,254.5C 211.486,250.887 212.319,247.221 213,243.5C 215.041,242.577 217.208,242.244 219.5,242.5C 222.079,242.606 224.412,241.939 226.5,240.5C 230.683,238.913 234.35,236.579 237.5,233.5C 238.906,233.027 239.573,232.027 239.5,230.5C 241.41,229.025 242.576,227.025 243,224.5C 243.801,221.633 243.634,218.966 242.5,216.5C 241.182,212.668 238.848,209.501 235.5,207C 231.566,204.536 227.566,202.369 223.5,200.5C 221.5,200.167 219.5,199.833 217.5,199.5C 214.991,198.079 212.657,196.412 210.5,194.5C 212.117,195.038 213.784,195.371 215.5,195.5C 215.5,192.833 215.5,190.167 215.5,187.5C 219.532,187.423 223.199,188.423 226.5,190.5C 226.216,192.415 226.549,194.081 227.5,195.5C 229.383,199.775 232.716,201.442 237.5,200.5C 238.167,200.5 238.833,200.5 239.5,200.5C 240.391,199.89 241.391,199.557 242.5,199.5C 245.942,196.672 247.109,193.005 246,188.5C 243.628,183.131 239.628,179.464 234,177.5C 233.505,175.527 233.338,173.527 233.5,171.5C 235.89,168.311 237.223,164.644 237.5,160.5C 236.5,160.5 235.5,160.5 234.5,160.5 Z"/></g>
<g><path style="opacity:1" fill="#0a550f" d="M 295.5,175.5 C 301.391,175.027 306.724,176.36 311.5,179.5C 307.626,178.239 303.626,177.572 299.5,177.5C 298.167,176.833 296.833,176.167 295.5,175.5 Z"/></g>
<g><path style="opacity:1" fill="#2d7729" d="M 197.5,175.5 C 198.167,175.5 198.833,175.5 199.5,175.5C 199.167,176.167 198.833,176.833 198.5,177.5C 196.147,178.34 194.147,179.674 192.5,181.5C 191.5,182.167 190.5,182.833 189.5,183.5C 189.859,181.629 190.859,180.129 192.5,179C 194.346,177.97 196.013,176.804 197.5,175.5 Z"/></g>
<g><path style="opacity:1" fill="#c7ba5c" d="M 217.5,172.5 C 218.167,172.833 218.833,173.167 219.5,173.5C 220.072,175.255 220.906,176.922 222,178.5C 228.287,183.659 233.787,189.326 238.5,195.5C 239.452,197.045 239.785,198.712 239.5,200.5C 238.833,200.5 238.167,200.5 237.5,200.5C 235.471,197.473 232.804,195.14 229.5,193.5C 228.719,192.271 228.219,190.938 228,189.5C 227.505,191.473 227.338,193.473 227.5,195.5C 226.549,194.081 226.216,192.415 226.5,190.5C 226.586,189.504 226.252,188.671 225.5,188C 221.078,185.896 216.412,185.063 211.5,185.5C 213.698,184.835 216.031,184.168 218.5,183.5C 215.811,180.48 213.144,177.48 210.5,174.5C 213.188,174.834 215.521,174.168 217.5,172.5 Z"/></g>
<g><path style="opacity:1" fill="#555c54" d="M 288.5,171.5 C 290.435,172.15 292.435,172.483 294.5,172.5C 300.993,173.359 307.327,174.859 313.5,177C 322.423,178.685 331.423,179.518 340.5,179.5C 341.167,179.5 341.833,179.5 342.5,179.5C 342.389,180.117 342.056,180.617 341.5,181C 336.845,181.499 332.179,181.666 327.5,181.5C 322.338,179.521 317.004,178.855 311.5,179.5C 306.724,176.36 301.391,175.027 295.5,175.5C 293.054,174.312 290.72,172.979 288.5,171.5 Z"/></g>
<g><path style="opacity:1" fill="#cbd2cc" d="M 372.5,174.5 C 375.317,177.142 376.817,180.475 377,184.5C 377.82,191.014 377.653,197.347 376.5,203.5C 376.822,197.642 376.489,191.975 375.5,186.5C 375.123,182.327 374.123,178.327 372.5,174.5 Z"/></g>
<g><path style="opacity:1" fill="#184f18" d="M 344.5,178.5 C 344.5,179.167 344.5,179.833 344.5,180.5C 343.5,181.167 342.5,181.833 341.5,182.5C 336.637,182.819 331.97,182.486 327.5,181.5C 332.179,181.666 336.845,181.499 341.5,181C 342.056,180.617 342.389,180.117 342.5,179.5C 342.842,178.662 343.508,178.328 344.5,178.5 Z"/></g>
<g><path style="opacity:1" fill="#117818" d="M 311.5,179.5 C 317.004,178.855 322.338,179.521 327.5,181.5C 331.97,182.486 336.637,182.819 341.5,182.5C 331.67,183.271 321.67,183.271 311.5,182.5C 311.5,181.5 311.5,180.5 311.5,179.5 Z"/></g>
<g><path style="opacity:1" fill="#0c8239" d="M 153.5,183.5 C 155.574,184.514 157.574,185.514 159.5,186.5C 157.315,186.704 155.315,187.37 153.5,188.5C 141.128,184.408 131.461,188.075 124.5,199.5C 121.293,202.768 119.627,206.768 119.5,211.5C 118.299,208.595 118.466,205.595 120,202.5C 121.979,198.7 124.479,195.366 127.5,192.5C 134.909,186.14 143.576,183.14 153.5,183.5 Z"/></g>
<g><path style="opacity:1" fill="#276623" d="M 211.5,185.5 C 216.412,185.063 221.078,185.896 225.5,188C 226.252,188.671 226.586,189.504 226.5,190.5C 223.199,188.423 219.532,187.423 215.5,187.5C 214.328,186.295 212.995,186.295 211.5,187.5C 210.526,189.743 210.192,192.076 210.5,194.5C 209.539,192.735 209.205,190.735 209.5,188.5C 209.427,186.973 210.094,185.973 211.5,185.5 Z"/></g>
<g><path style="opacity:1" fill="#b9a344" d="M 239.5,230.5 C 239.573,232.027 238.906,233.027 237.5,233.5C 233.306,225.478 227.473,218.812 220,213.5C 212.453,203.616 203.787,194.616 194,186.5C 193.392,184.846 192.892,183.179 192.5,181.5C 193.496,181.586 194.329,181.252 195,180.5C 209.833,197.481 224.667,214.147 239.5,230.5 Z"/></g>
<g><path style="opacity:1" fill="#0b5a17" d="M 287.5,186.5 C 291.012,185.945 294.012,186.612 296.5,188.5C 295.5,188.5 294.5,188.5 293.5,188.5C 286.978,188.823 280.645,188.49 274.5,187.5C 278.634,186.515 282.968,186.182 287.5,186.5 Z"/></g>
<g><path style="opacity:1" fill="#0dde76" d="M 153.5,188.5 C 152.833,188.5 152.5,188.833 152.5,189.5C 146.556,192.437 142.889,197.104 141.5,203.5C 140.833,203.5 140.5,203.833 140.5,204.5C 138.789,208.881 138.123,213.547 138.5,218.5C 137.261,214.318 137.261,209.985 138.5,205.5C 138.147,203.269 137.314,201.269 136,199.5C 135.667,200.167 135.333,200.833 135,201.5C 132.648,194.435 129.148,193.768 124.5,199.5C 131.461,188.075 141.128,184.408 153.5,188.5 Z"/></g>
<g><path style="opacity:1" fill="#576d5b" d="M 159.5,186.5 C 162.522,187.522 164.522,189.522 165.5,192.5C 165.167,192.5 164.833,192.5 164.5,192.5C 163.71,191.206 162.71,190.039 161.5,189C 158.493,188.699 155.493,188.865 152.5,189.5C 152.5,188.833 152.833,188.5 153.5,188.5C 155.315,187.37 157.315,186.704 159.5,186.5 Z"/></g>
<g><path style="opacity:1" fill="#18ad44" d="M 215.5,187.5 C 215.5,190.167 215.5,192.833 215.5,195.5C 213.784,195.371 212.117,195.038 210.5,194.5C 210.192,192.076 210.526,189.743 211.5,187.5C 212.995,186.295 214.328,186.295 215.5,187.5 Z"/></g>
<g><path style="opacity:1" fill="#fbfcfb" d="M 164.5,192.5 C 164.833,192.5 165.167,192.5 165.5,192.5C 165.845,196.422 166.512,200.255 167.5,204C 173.5,204.333 179.5,204.667 185.5,205C 186.163,206.518 187.163,207.685 188.5,208.5C 190.5,210.167 192.5,211.833 194.5,213.5C 184.5,214.167 174.5,214.833 164.5,215.5C 161.257,221.496 156.59,225.996 150.5,229C 149.207,229.49 147.873,229.657 146.5,229.5C 143.027,227.363 140.694,224.363 139.5,220.5C 139.98,215.178 140.313,209.845 140.5,204.5C 140.5,203.833 140.833,203.5 141.5,203.5C 142.128,201.338 143.461,199.672 145.5,198.5C 148.412,195.419 151.746,192.919 155.5,191C 158.772,190.212 161.772,190.712 164.5,192.5 Z"/></g>
<g><path style="opacity:1" fill="#708173" d="M 293.5,188.5 C 294.5,188.5 295.5,188.5 296.5,188.5C 300.385,189.109 303.718,190.776 306.5,193.5C 306.5,194.167 306.5,194.833 306.5,195.5C 305.5,194.833 304.5,194.167 303.5,193.5C 300.827,190.157 297.494,189.157 293.5,190.5C 293.5,189.833 293.5,189.167 293.5,188.5 Z"/></g>
<g><path style="opacity:1" fill="#b9c1ba" d="M 303.5,193.5 C 300.988,192.072 298.322,191.572 295.5,192C 292.988,197.182 290.655,202.349 288.5,207.5C 288.684,203.284 289.684,199.284 291.5,195.5C 292.537,194.07 293.204,192.403 293.5,190.5C 297.494,189.157 300.827,190.157 303.5,193.5 Z"/></g>
<g><path style="opacity:1" fill="#fafbfb" d="M 303.5,193.5 C 304.971,196.062 305.638,198.896 305.5,202C 305.23,206.242 304.563,210.409 303.5,214.5C 299.958,221.043 294.624,225.376 287.5,227.5C 285.883,228.038 284.216,228.371 282.5,228.5C 283.709,224.703 285.209,221.036 287,217.5C 287.61,214.173 288.11,210.839 288.5,207.5C 290.655,202.349 292.988,197.182 295.5,192C 298.322,191.572 300.988,192.072 303.5,193.5 Z"/></g>
<g><path style="opacity:1" fill="#45691e" d="M 189.5,183.5 C 187.06,189.173 186.06,195.173 186.5,201.5C 185.833,201.5 185.167,201.5 184.5,201.5C 184.5,198.5 184.5,195.5 184.5,192.5C 185.469,190.337 186.302,188.004 187,185.5C 187.708,184.619 188.542,183.953 189.5,183.5 Z"/></g>
<g><path style="opacity:1" fill="#9b801f" d="M 192.5,181.5 C 192.892,183.179 193.392,184.846 194,186.5C 203.787,194.616 212.453,203.616 220,213.5C 227.473,218.812 233.306,225.478 237.5,233.5C 234.35,236.579 230.683,238.913 226.5,240.5C 224.562,238.337 222.396,236.337 220,234.5C 219.667,233.5 219.333,232.5 219,231.5C 218.329,232.252 217.496,232.586 216.5,232.5C 216.833,231.833 217.167,231.167 217.5,230.5C 219.326,228.545 219.826,226.212 219,223.5C 213.579,221.207 208.412,218.54 203.5,215.5C 198.613,210.272 193.613,204.939 188.5,199.5C 187.571,200.689 187.238,202.022 187.5,203.5C 187.167,203.5 186.833,203.5 186.5,203.5C 186.5,202.833 186.5,202.167 186.5,201.5C 186.06,195.173 187.06,189.173 189.5,183.5C 190.5,182.833 191.5,182.167 192.5,181.5 Z"/></g>
<g><path style="opacity:1" fill="#06c167" d="M 100.5,162.5 C 99.7837,165.283 99.117,168.116 98.5,171C 100.123,172.876 99.7898,174.21 97.5,175C 102.167,175.333 106.833,175.667 111.5,176C 109.527,176.495 107.527,176.662 105.5,176.5C 103.951,182.074 105.951,184.074 111.5,182.5C 111.261,184.467 111.594,186.301 112.5,188C 116.871,188.172 121.204,188.672 125.5,189.5C 126.193,190.518 126.859,191.518 127.5,192.5C 124.479,195.366 121.979,198.7 120,202.5C 118.466,205.595 118.299,208.595 119.5,211.5C 119.335,214.518 119.502,217.518 120,220.5C 121.527,222.221 122.527,224.221 123,226.5C 124.129,228.141 125.629,229.141 127.5,229.5C 127.336,232.187 127.503,234.854 128,237.5C 129.667,236.833 131.333,236.167 133,235.5C 134.188,236.563 134.688,237.897 134.5,239.5C 135.5,239.5 136.5,239.5 137.5,239.5C 137.5,241.5 137.5,243.5 137.5,245.5C 139.5,245.5 141.5,245.5 143.5,245.5C 143.5,247.833 143.5,250.167 143.5,252.5C 145.833,252.5 148.167,252.5 150.5,252.5C 150.772,256.902 150.439,261.235 149.5,265.5C 151.948,265.729 154.448,265.729 157,265.5C 157.333,266.167 157.667,266.833 158,267.5C 158.671,266.748 159.504,266.414 160.5,266.5C 155.624,269.183 150.291,271.016 144.5,272C 135.755,272.802 127.088,272.636 118.5,271.5C 117.344,267.207 116.344,262.874 115.5,258.5C 114.982,254.453 114.148,250.453 113,246.5C 112.617,245.944 112.117,245.611 111.5,245.5C 111.5,244.5 111.5,243.5 111.5,242.5C 108.017,242.327 105.017,243.327 102.5,245.5C 100.883,246.038 99.2161,246.371 97.5,246.5C 91.1444,247.726 84.8111,249.059 78.5,250.5C 75.9123,246.326 73.579,241.993 71.5,237.5C 71.634,235.708 71.3007,234.042 70.5,232.5C 70.1535,223.077 70.8202,213.743 72.5,204.5C 76.6931,186.991 86.0265,172.991 100.5,162.5 Z"/></g>
<g><path style="opacity:1" fill="#5f8068" d="M 152.5,189.5 C 149.761,192.233 147.427,195.233 145.5,198.5C 143.461,199.672 142.128,201.338 141.5,203.5C 142.889,197.104 146.556,192.437 152.5,189.5 Z"/></g>
<g><path style="opacity:1" fill="#11af49" d="M 223.5,200.5 C 221.824,198.166 219.491,197.166 216.5,197.5C 216.401,194.327 217.068,191.327 218.5,188.5C 220.115,189.154 221.782,189.654 223.5,190C 225.017,193.026 226.35,196.193 227.5,199.5C 226.311,200.429 224.978,200.762 223.5,200.5 Z"/></g>
<g><path style="opacity:1" fill="#b39c3d" d="M 219.5,173.5 C 227.154,179.321 233.987,185.987 240,193.5C 241.559,195.217 242.392,197.217 242.5,199.5C 241.391,199.557 240.391,199.89 239.5,200.5C 239.785,198.712 239.452,197.045 238.5,195.5C 233.787,189.326 228.287,183.659 222,178.5C 220.906,176.922 220.072,175.255 219.5,173.5 Z"/></g>
<g><path style="opacity:1" fill="#cacdca" d="M 164.5,192.5 C 161.772,190.712 158.772,190.212 155.5,191C 151.746,192.919 148.412,195.419 145.5,198.5C 147.427,195.233 149.761,192.233 152.5,189.5C 155.493,188.865 158.493,188.699 161.5,189C 162.71,190.039 163.71,191.206 164.5,192.5 Z"/></g>
<g><path style="opacity:1" fill="#0ea741" d="M 291.5,195.5 C 289.684,199.284 288.684,203.284 288.5,207.5C 286.236,213.892 283.903,220.392 281.5,227C 281.57,227.765 281.903,228.265 282.5,228.5C 284.216,228.371 285.883,228.038 287.5,227.5C 286.365,229.213 284.698,229.88 282.5,229.5C 281.167,229.5 279.833,229.5 278.5,229.5C 280.947,224.371 282.447,219.037 283,213.5C 281.415,212.624 280.415,211.291 280,209.5C 279.439,210.022 278.772,210.355 278,210.5C 275.345,208.435 272.512,207.768 269.5,208.5C 270.514,201.982 272.514,195.815 275.5,190C 280.823,189.501 286.156,189.334 291.5,189.5C 291.5,191.5 291.5,193.5 291.5,195.5 Z"/></g>
<g><path style="opacity:1" fill="#dddb7e" d="M 237.5,200.5 C 232.716,201.442 229.383,199.775 227.5,195.5C 227.338,193.473 227.505,191.473 228,189.5C 228.219,190.938 228.719,192.271 229.5,193.5C 232.804,195.14 235.471,197.473 237.5,200.5 Z"/></g>
<g><path style="opacity:1" fill="#c0cec3" d="M 303.5,193.5 C 304.5,194.167 305.5,194.833 306.5,195.5C 306.5,196.167 306.833,196.5 307.5,196.5C 307.714,202.964 306.381,208.964 303.5,214.5C 304.563,210.409 305.23,206.242 305.5,202C 305.638,198.896 304.971,196.062 303.5,193.5 Z"/></g>
<g><path style="opacity:1" fill="#2b9f55" d="M 184.5,192.5 C 184.5,195.5 184.5,198.5 184.5,201.5C 179.5,201.5 174.5,201.5 169.5,201.5C 167.952,201.179 167.285,200.179 167.5,198.5C 172.532,200.37 177.865,201.037 183.5,200.5C 183.194,197.615 183.527,194.948 184.5,192.5 Z"/></g>
<g><path style="opacity:1" fill="#cfc264" d="M 198.5,177.5 C 201.467,180.25 204.634,182.916 208,185.5C 208.232,186.737 208.732,187.737 209.5,188.5C 209.205,190.735 209.539,192.735 210.5,194.5C 212.657,196.412 214.991,198.079 217.5,199.5C 225.108,207.94 233.275,215.94 242,223.5C 242.497,221.19 242.663,218.857 242.5,216.5C 243.634,218.966 243.801,221.633 243,224.5C 242.576,227.025 241.41,229.025 239.5,230.5C 224.667,214.147 209.833,197.481 195,180.5C 194.329,181.252 193.496,181.586 192.5,181.5C 194.147,179.674 196.147,178.34 198.5,177.5 Z"/></g>
<g><path style="opacity:1" fill="#0e832d" d="M 274.5,187.5 C 280.645,188.49 286.978,188.823 293.5,188.5C 293.5,189.167 293.5,189.833 293.5,190.5C 293.204,192.403 292.537,194.07 291.5,195.5C 291.5,193.5 291.5,191.5 291.5,189.5C 286.156,189.334 280.823,189.501 275.5,190C 272.514,195.815 270.514,201.982 269.5,208.5C 266.364,215.134 264.031,222.134 262.5,229.5C 261.503,229.53 260.836,229.03 260.5,228C 265.079,214.369 269.746,200.869 274.5,187.5 Z"/></g>
<g><path style="opacity:1" fill="#5e7560" d="M 169.5,201.5 C 174.5,201.5 179.5,201.5 184.5,201.5C 185.167,201.5 185.833,201.5 186.5,201.5C 186.5,202.167 186.5,202.833 186.5,203.5C 180.732,202.874 175.066,202.207 169.5,201.5 Z"/></g>
<g><path style="opacity:1" fill="#c4cac5" d="M 165.5,192.5 C 167.074,194.102 167.741,196.102 167.5,198.5C 167.285,200.179 167.952,201.179 169.5,201.5C 175.066,202.207 180.732,202.874 186.5,203.5C 186.833,203.5 187.167,203.5 187.5,203.5C 188.11,204.391 188.443,205.391 188.5,206.5C 188.5,207.167 188.5,207.833 188.5,208.5C 187.163,207.685 186.163,206.518 185.5,205C 179.5,204.667 173.5,204.333 167.5,204C 166.512,200.255 165.845,196.422 165.5,192.5 Z"/></g>
<g><path style="opacity:1" fill="#07f180" d="M 138.5,218.5 C 138.328,219.492 138.662,220.158 139.5,220.5C 140.694,224.363 143.027,227.363 146.5,229.5C 146.389,230.117 146.056,230.617 145.5,231C 140.167,231.667 134.833,231.667 129.5,231C 128.956,230.283 128.289,229.783 127.5,229.5C 125.629,229.141 124.129,228.141 123,226.5C 122.527,224.221 121.527,222.221 120,220.5C 119.502,217.518 119.335,214.518 119.5,211.5C 119.627,206.768 121.293,202.768 124.5,199.5C 129.148,193.768 132.648,194.435 135,201.5C 135.333,200.833 135.667,200.167 136,199.5C 137.314,201.269 138.147,203.269 138.5,205.5C 137.261,209.985 137.261,214.318 138.5,218.5 Z"/></g>
<g><path style="opacity:1" fill="#b6a347" d="M 203.5,215.5 C 202.041,215.567 200.708,215.234 199.5,214.5C 195.302,212.567 191.635,209.901 188.5,206.5C 188.443,205.391 188.11,204.391 187.5,203.5C 187.238,202.022 187.571,200.689 188.5,199.5C 193.613,204.939 198.613,210.272 203.5,215.5 Z"/></g>
<g><path style="opacity:1" fill="#737a68" d="M 188.5,206.5 C 191.635,209.901 195.302,212.567 199.5,214.5C 199.158,215.338 198.492,215.672 197.5,215.5C 197.167,215.5 196.833,215.5 196.5,215.5C 196.167,214.5 195.5,213.833 194.5,213.5C 192.5,211.833 190.5,210.167 188.5,208.5C 188.5,207.833 188.5,207.167 188.5,206.5 Z"/></g>
<g><path style="opacity:1" fill="#8ea191" d="M 375.5,186.5 C 376.489,191.975 376.822,197.642 376.5,203.5C 376.209,212.664 374.042,221.33 370,229.5C 369.292,230.381 368.458,231.047 367.5,231.5C 374.135,217.275 376.802,202.275 375.5,186.5 Z"/></g>
<g><path style="opacity:1" fill="#ede784" d="M 217.5,199.5 C 219.5,199.833 221.5,200.167 223.5,200.5C 227.566,202.369 231.566,204.536 235.5,207C 238.848,209.501 241.182,212.668 242.5,216.5C 242.663,218.857 242.497,221.19 242,223.5C 233.275,215.94 225.108,207.94 217.5,199.5 Z"/></g>
<g><path style="opacity:1" fill="#9fbba9" d="M 140.5,204.5 C 140.313,209.845 139.98,215.178 139.5,220.5C 138.662,220.158 138.328,219.492 138.5,218.5C 138.123,213.547 138.789,208.881 140.5,204.5 Z"/></g>
<g><path style="opacity:1" fill="#b9d8c5" d="M 194.5,213.5 C 195.5,213.833 196.167,214.5 196.5,215.5C 195.833,215.5 195.167,215.5 194.5,215.5C 189.5,215.5 184.5,215.5 179.5,215.5C 174.5,215.5 169.5,215.5 164.5,215.5C 174.5,214.833 184.5,214.167 194.5,213.5 Z"/></g>
<g><path style="opacity:1" fill="#05b448" d="M 278.5,229.5 C 273.167,229.5 267.833,229.5 262.5,229.5C 264.031,222.134 266.364,215.134 269.5,208.5C 272.512,207.768 275.345,208.435 278,210.5C 278.772,210.355 279.439,210.022 280,209.5C 280.415,211.291 281.415,212.624 283,213.5C 282.447,219.037 280.947,224.371 278.5,229.5 Z"/></g>
<g><path style="opacity:1" fill="#b9c0ba" d="M 288.5,207.5 C 288.11,210.839 287.61,214.173 287,217.5C 285.209,221.036 283.709,224.703 282.5,228.5C 281.903,228.265 281.57,227.765 281.5,227C 283.903,220.392 286.236,213.892 288.5,207.5 Z"/></g>
<g><path style="opacity:1" fill="#0a7419" d="M 354.5,217.5 C 351.73,227.502 346.73,236.168 339.5,243.5C 338.833,243.5 338.167,243.5 337.5,243.5C 341.588,238.987 344.921,233.987 347.5,228.5C 349.795,224.814 351.628,220.814 353,216.5C 356.468,202.084 356.301,187.751 352.5,173.5C 352.81,172.262 353.31,172.262 354,173.5C 355.456,178.719 357.289,183.386 359.5,187.5C 359.192,188.308 358.692,188.975 358,189.5C 357.667,195.5 357.333,201.5 357,207.5C 356.693,211.047 355.86,214.38 354.5,217.5 Z"/></g>
<g><path style="opacity:1" fill="#a7c8b4" d="M 72.5,204.5 C 70.8202,213.743 70.1535,223.077 70.5,232.5C 69.346,226.013 69.1794,219.346 70,212.5C 70.2794,209.543 71.1127,206.877 72.5,204.5 Z"/></g>
<g><path style="opacity:1" fill="#f6f68c" d="M 207.5,231.5 C 212.667,233.657 216.667,237.324 219.5,242.5C 217.208,242.244 215.041,242.577 213,243.5C 212.319,247.221 211.486,250.887 210.5,254.5C 206.798,254.579 203.132,254.246 199.5,253.5C 197.97,253.36 196.97,252.693 196.5,251.5C 197.583,247.915 198.249,244.249 198.5,240.5C 191.205,240.436 185.039,237.769 180,232.5C 175.876,226.058 177.043,220.892 183.5,217C 193.397,214.571 198.231,218.404 198,228.5C 200.934,230.193 204.101,231.193 207.5,231.5 Z"/></g>
<g><path style="opacity:1" fill="#19bb35" d="M 307.5,196.5 C 308.473,196.987 309.473,197.487 310.5,198C 309.413,202.653 309.913,207.153 312,211.5C 313.348,208.979 314.181,206.645 314.5,204.5C 315.5,204.833 316.167,205.5 316.5,206.5C 315.636,208.986 315.636,211.152 316.5,213C 320.792,213.919 324.792,214.752 328.5,215.5C 328.069,216.293 327.735,217.127 327.5,218C 328.656,220.633 329.656,223.3 330.5,226C 333.471,226.794 336.471,227.461 339.5,228C 340.943,229.067 342.276,230.234 343.5,231.5C 344.283,229.712 345.616,228.712 347.5,228.5C 344.921,233.987 341.588,238.987 337.5,243.5C 333.102,248.229 328.102,252.229 322.5,255.5C 320.54,256.138 318.707,256.138 317,255.5C 315.649,256.961 314.149,258.294 312.5,259.5C 311.808,258.975 311.308,258.308 311,257.5C 309.602,258.051 308.268,258.384 307,258.5C 306.667,257.167 306.333,255.833 306,254.5C 305.586,254.957 305.086,255.291 304.5,255.5C 303.682,252.893 303.182,250.226 303,247.5C 301.295,246.237 299.628,245.903 298,246.5C 297.56,244.536 296.726,242.37 295.5,240C 292.854,239.503 290.187,239.336 287.5,239.5C 287.64,237.876 286.973,236.71 285.5,236C 286.973,235.29 287.64,234.124 287.5,232.5C 284.715,233.084 283.048,232.084 282.5,229.5C 284.698,229.88 286.365,229.213 287.5,227.5C 294.624,225.376 299.958,221.043 303.5,214.5C 306.381,208.964 307.714,202.964 307.5,196.5 Z"/></g>
<g><path style="opacity:1" fill="#12b553" d="M 194.5,215.5 C 195.167,215.5 195.833,215.5 196.5,215.5C 196.833,215.5 197.167,215.5 197.5,215.5C 200.749,217.019 204.082,218.686 207.5,220.5C 208.298,220.957 208.631,221.624 208.5,222.5C 207.067,224.519 205.733,226.686 204.5,229C 202.893,228.981 201.226,228.815 199.5,228.5C 199.663,226.143 199.497,223.81 199,221.5C 197.668,219.34 196.168,217.34 194.5,215.5 Z"/></g>
<g><path style="opacity:1" fill="#28631e" d="M 199.5,214.5 C 200.708,215.234 202.041,215.567 203.5,215.5C 208.412,218.54 213.579,221.207 219,223.5C 219.826,226.212 219.326,228.545 217.5,230.5C 217.795,228.265 217.461,226.265 216.5,224.5C 215.003,223.396 213.336,222.396 211.5,221.5C 210.584,221.543 209.917,221.876 209.5,222.5C 209.167,222.5 208.833,222.5 208.5,222.5C 208.631,221.624 208.298,220.957 207.5,220.5C 204.082,218.686 200.749,217.019 197.5,215.5C 198.492,215.672 199.158,215.338 199.5,214.5 Z"/></g>
<g><path style="opacity:1" fill="#14bc44" d="M 246.5,185.5 C 247.117,185.611 247.617,185.944 248,186.5C 248.882,189.789 249.548,193.123 250,196.5C 251.145,200.131 253.645,201.964 257.5,202C 258.167,203.667 258.833,205.333 259.5,207C 264.365,210.141 267.032,208.808 267.5,203C 266.668,200.522 266.501,198.022 267,195.5C 268,195.167 269,194.833 270,194.5C 271.549,191.688 272.382,188.688 272.5,185.5C 277.695,185.179 282.695,185.513 287.5,186.5C 282.968,186.182 278.634,186.515 274.5,187.5C 269.746,200.869 265.079,214.369 260.5,228C 260.836,229.03 261.503,229.53 262.5,229.5C 267.833,229.5 273.167,229.5 278.5,229.5C 279.833,229.5 281.167,229.5 282.5,229.5C 283.048,232.084 284.715,233.084 287.5,232.5C 287.64,234.124 286.973,235.29 285.5,236C 286.973,236.71 287.64,237.876 287.5,239.5C 290.187,239.336 292.854,239.503 295.5,240C 296.726,242.37 297.56,244.536 298,246.5C 299.628,245.903 301.295,246.237 303,247.5C 303.182,250.226 303.682,252.893 304.5,255.5C 305.086,255.291 305.586,254.957 306,254.5C 306.333,255.833 306.667,257.167 307,258.5C 308.268,258.384 309.602,258.051 311,257.5C 311.308,258.308 311.808,258.975 312.5,259.5C 314.149,258.294 315.649,256.961 317,255.5C 318.707,256.138 320.54,256.138 322.5,255.5C 312.877,261.914 302.21,265.581 290.5,266.5C 284.196,267.26 277.863,267.593 271.5,267.5C 271.911,264.724 271.078,264.057 269,265.5C 267.566,265.07 266.399,264.236 265.5,263C 265.633,260.266 265.633,257.599 265.5,255C 265,254.5 264.5,254 264,253.5C 263.813,255.345 262.98,257.011 261.5,258.5C 260.618,257.24 259.618,256.074 258.5,255C 258.945,251.554 258.945,248.387 258.5,245.5C 254.476,244.856 250.642,244.856 247,245.5C 246.505,243.527 246.338,241.527 246.5,239.5C 248.541,239.146 250.374,239.146 252,239.5C 252.251,236.297 250.917,235.297 248,236.5C 246.177,235.349 244.344,234.182 242.5,233C 243.252,232.329 243.586,231.496 243.5,230.5C 247.285,218.914 243.951,210.08 233.5,204C 245.53,203.147 249.864,196.981 246.5,185.5 Z"/></g>
<g><path style="opacity:1" fill="#0bb955" d="M 216.5,224.5 C 216.5,226.5 216.5,228.5 216.5,230.5C 213.5,230.5 210.5,230.5 207.5,230.5C 207.584,227.673 208.25,225.006 209.5,222.5C 209.917,221.876 210.584,221.543 211.5,221.5C 213.336,222.396 215.003,223.396 216.5,224.5 Z"/></g>
<g><path style="opacity:1" fill="#099934" d="M 366.5,231.5 C 360.186,242.147 351.852,250.814 341.5,257.5C 339.181,257.992 337.181,258.992 335.5,260.5C 328.864,263.266 322.198,265.599 315.5,267.5C 312.482,267.704 309.482,268.037 306.5,268.5C 303.813,268.664 301.146,268.497 298.5,268C 303.528,265.49 308.861,263.823 314.5,263C 322.405,258.749 329.738,253.749 336.5,248C 337.883,246.729 338.883,245.229 339.5,243.5C 346.73,236.168 351.73,227.502 354.5,217.5C 357.765,221.536 361.265,221.87 365,218.5C 365.333,219.167 365.667,219.833 366,220.5C 366.667,219.167 367.333,219.167 368,220.5C 368.333,218.5 368.667,216.5 369,214.5C 371.189,219.575 370.022,223.741 365.5,227C 366.38,228.356 366.714,229.856 366.5,231.5 Z"/></g>
<g><path style="opacity:1" fill="#09c061" d="M 164.5,215.5 C 169.5,215.5 174.5,215.5 179.5,215.5C 174.095,224.831 175.762,232.497 184.5,238.5C 188.458,239.594 192.125,241.261 195.5,243.5C 186.617,255.439 174.95,263.106 160.5,266.5C 159.504,266.414 158.671,266.748 158,267.5C 157.667,266.833 157.333,266.167 157,265.5C 154.448,265.729 151.948,265.729 149.5,265.5C 150.439,261.235 150.772,256.902 150.5,252.5C 148.167,252.5 145.833,252.5 143.5,252.5C 143.5,250.167 143.5,247.833 143.5,245.5C 141.5,245.5 139.5,245.5 137.5,245.5C 137.5,243.5 137.5,241.5 137.5,239.5C 136.5,239.5 135.5,239.5 134.5,239.5C 134.688,237.897 134.188,236.563 133,235.5C 131.333,236.167 129.667,236.833 128,237.5C 127.503,234.854 127.336,232.187 127.5,229.5C 128.289,229.783 128.956,230.283 129.5,231C 134.833,231.667 140.167,231.667 145.5,231C 146.056,230.617 146.389,230.117 146.5,229.5C 147.873,229.657 149.207,229.49 150.5,229C 156.59,225.996 161.257,221.496 164.5,215.5 Z"/></g>
<g><path style="opacity:1" fill="#c8be61" d="M 207.5,231.5 C 210.43,232.299 213.43,232.632 216.5,232.5C 217.496,232.586 218.329,232.252 219,231.5C 219.333,232.5 219.667,233.5 220,234.5C 222.396,236.337 224.562,238.337 226.5,240.5C 224.412,241.939 222.079,242.606 219.5,242.5C 216.667,237.324 212.667,233.657 207.5,231.5 Z"/></g>
<g><path style="opacity:1" fill="#10bc52" d="M 243.5,230.5 C 243.586,231.496 243.252,232.329 242.5,233C 244.344,234.182 246.177,235.349 248,236.5C 250.917,235.297 252.251,236.297 252,239.5C 250.374,239.146 248.541,239.146 246.5,239.5C 246.338,241.527 246.505,243.527 247,245.5C 250.642,244.856 254.476,244.856 258.5,245.5C 258.945,248.387 258.945,251.554 258.5,255C 259.618,256.074 260.618,257.24 261.5,258.5C 262.98,257.011 263.813,255.345 264,253.5C 264.5,254 265,254.5 265.5,255C 265.633,257.599 265.633,260.266 265.5,263C 266.399,264.236 267.566,265.07 269,265.5C 271.078,264.057 271.911,264.724 271.5,267.5C 277.863,267.593 284.196,267.26 290.5,266.5C 289.737,267.268 288.737,267.768 287.5,268C 258.502,268.5 229.502,268.667 200.5,268.5C 200.993,266.194 201.326,263.861 201.5,261.5C 202.345,260.329 203.011,258.995 203.5,257.5C 206.119,257.768 208.619,257.435 211,256.5C 212.095,252.615 213.261,248.782 214.5,245C 226.417,244.431 236.084,239.598 243.5,230.5 Z"/></g>
<g><path style="opacity:1" fill="#f3f3f1" d="M 105.5,245.5 C 106.833,245.5 108.167,245.5 109.5,245.5C 110.63,250.888 111.963,256.222 113.5,261.5C 109.584,261.025 106.251,262.025 103.5,264.5C 97.5889,265.582 91.5889,266.748 85.5,268C 83.3819,269.082 81.3819,270.249 79.5,271.5C 72.6304,271.579 66.297,273.246 60.5,276.5C 59.0512,271.96 57.7179,267.293 56.5,262.5C 56.5,261.5 56.5,260.5 56.5,259.5C 73.222,255.906 89.5553,251.239 105.5,245.5 Z"/></g>
<g><path style="opacity:1" fill="#cacdcb" d="M 362.5,241.5 C 357.251,250.085 349.918,256.085 340.5,259.5C 340.833,258.833 341.167,258.167 341.5,257.5C 344.899,255.969 348.233,254.135 351.5,252C 355.036,248.296 358.702,244.796 362.5,241.5 Z"/></g>
<g><path style="opacity:1" fill="#2d9760" d="M 111.5,245.5 C 112.117,245.611 112.617,245.944 113,246.5C 114.148,250.453 114.982,254.453 115.5,258.5C 113.422,254.491 112.089,250.158 111.5,245.5 Z"/></g>
<g><path style="opacity:1" fill="#5a6d5d" d="M 366.5,231.5 C 366.833,231.5 367.167,231.5 367.5,231.5C 365.833,234.833 364.167,238.167 362.5,241.5C 358.702,244.796 355.036,248.296 351.5,252C 348.233,254.135 344.899,255.969 341.5,257.5C 351.852,250.814 360.186,242.147 366.5,231.5 Z"/></g>
<g><path style="opacity:1" fill="#a3ba6a" d="M 196.5,251.5 C 196.97,252.693 197.97,253.36 199.5,253.5C 203.132,254.246 206.798,254.579 210.5,254.5C 205.659,255.532 200.659,255.532 195.5,254.5C 195.263,253.209 195.596,252.209 196.5,251.5 Z"/></g>
<g><path style="opacity:1" fill="#4b4e4a" d="M 91.5,254.5 C 95.6383,254.566 99.3049,256.399 102.5,260C 98.7862,258.501 95.1195,256.667 91.5,254.5 Z"/></g>
<g><path style="opacity:1" fill="#0be37a" d="M 195.5,255.5 C 197.5,256.167 199.5,256.833 201.5,257.5C 188.857,266.851 174.524,271.851 158.5,272.5C 156.585,272.784 154.919,272.451 153.5,271.5C 169.093,267.473 182.593,259.807 194,248.5C 194.186,251.036 194.686,253.369 195.5,255.5 Z"/></g>
<g><path style="opacity:1" fill="#a4a7a4" d="M 71.5,237.5 C 73.579,241.993 75.9123,246.326 78.5,250.5C 78.9169,251.124 79.5836,251.457 80.5,251.5C 86.4418,250.357 92.1085,248.691 97.5,246.5C 99.2161,246.371 100.883,246.038 102.5,245.5C 103.5,245.5 104.5,245.5 105.5,245.5C 89.5553,251.239 73.222,255.906 56.5,259.5C 56.5,260.5 56.5,261.5 56.5,262.5C 55.8423,261.602 55.1757,260.602 54.5,259.5C 53.6143,260.325 53.281,261.325 53.5,262.5C 52.5489,261.081 52.2155,259.415 52.5,257.5C 60.4324,256.15 68.0991,253.983 75.5,251C 73.86,246.581 72.5267,242.081 71.5,237.5 Z"/></g>
<g><path style="opacity:1" fill="#68b089" d="M 97.5,246.5 C 92.1085,248.691 86.4418,250.357 80.5,251.5C 79.5836,251.457 78.9169,251.124 78.5,250.5C 84.8111,249.059 91.1444,247.726 97.5,246.5 Z"/></g>
<g><path style="opacity:1" fill="#11702a" d="M 337.5,243.5 C 338.167,243.5 338.833,243.5 339.5,243.5C 338.883,245.229 337.883,246.729 336.5,248C 329.738,253.749 322.405,258.749 314.5,263C 308.861,263.823 303.528,265.49 298.5,268C 301.146,268.497 303.813,268.664 306.5,268.5C 271.671,269.498 236.671,269.832 201.5,269.5C 201.167,269.5 200.833,269.5 200.5,269.5C 200.5,269.167 200.5,268.833 200.5,268.5C 229.502,268.667 258.502,268.5 287.5,268C 288.737,267.768 289.737,267.268 290.5,266.5C 302.21,265.581 312.877,261.914 322.5,255.5C 328.102,252.229 333.102,248.229 337.5,243.5 Z"/></g>
<g><path style="opacity:1" fill="#415745" d="M 341.5,257.5 C 341.167,258.167 340.833,258.833 340.5,259.5C 338.883,260.038 337.216,260.371 335.5,260.5C 337.181,258.992 339.181,257.992 341.5,257.5 Z"/></g>
<g><path style="opacity:1" fill="#e8e8ab" d="M 113.5,261.5 C 112.817,263.176 111.483,263.843 109.5,263.5C 107.565,264.15 105.565,264.483 103.5,264.5C 106.251,262.025 109.584,261.025 113.5,261.5 Z"/></g>
<g><path style="opacity:1" fill="#1d833a" d="M 179.5,215.5 C 184.5,215.5 189.5,215.5 194.5,215.5C 196.168,217.34 197.668,219.34 199,221.5C 199.497,223.81 199.663,226.143 199.5,228.5C 201.226,228.815 202.893,228.981 204.5,229C 205.733,226.686 207.067,224.519 208.5,222.5C 208.833,222.5 209.167,222.5 209.5,222.5C 208.25,225.006 207.584,227.673 207.5,230.5C 210.5,230.5 213.5,230.5 216.5,230.5C 216.5,228.5 216.5,226.5 216.5,224.5C 217.461,226.265 217.795,228.265 217.5,230.5C 217.167,231.167 216.833,231.833 216.5,232.5C 213.43,232.632 210.43,232.299 207.5,231.5C 204.101,231.193 200.934,230.193 198,228.5C 198.231,218.404 193.397,214.571 183.5,217C 177.043,220.892 175.876,226.058 180,232.5C 185.039,237.769 191.205,240.436 198.5,240.5C 198.249,244.249 197.583,247.915 196.5,251.5C 195.596,252.209 195.263,253.209 195.5,254.5C 195.5,254.833 195.5,255.167 195.5,255.5C 194.686,253.369 194.186,251.036 194,248.5C 182.593,259.807 169.093,267.473 153.5,271.5C 150.627,271.802 147.961,272.469 145.5,273.5C 140.167,273.5 134.833,273.5 129.5,273.5C 125.351,274.08 121.684,273.414 118.5,271.5C 127.088,272.636 135.755,272.802 144.5,272C 150.291,271.016 155.624,269.183 160.5,266.5C 174.95,263.106 186.617,255.439 195.5,243.5C 192.125,241.261 188.458,239.594 184.5,238.5C 175.762,232.497 174.095,224.831 179.5,215.5 Z"/></g>
<g><path style="opacity:1" fill="#363836" d="M 63.5,262.5 C 63.7012,265.901 65.3679,268.401 68.5,270C 66.6332,270.711 65.1332,270.211 64,268.5C 63.5045,266.527 63.3379,264.527 63.5,262.5 Z"/></g>
<g><path style="opacity:1" fill="#96b880" d="M 109.5,263.5 C 109.167,264.167 108.833,264.833 108.5,265.5C 103.919,265.759 99.586,266.759 95.5,268.5C 95.9528,267.542 96.6195,266.708 97.5,266C 99.7078,265.809 101.708,265.309 103.5,264.5C 105.565,264.483 107.565,264.15 109.5,263.5 Z"/></g>
<g><path style="opacity:1" fill="#516554" d="M 335.5,260.5 C 334.694,261.728 333.694,262.728 332.5,263.5C 327.018,265.581 321.351,266.914 315.5,267.5C 322.198,265.599 328.864,263.266 335.5,260.5 Z"/></g>
<g><path style="opacity:1" fill="#d8de9f" d="M 103.5,264.5 C 101.708,265.309 99.7078,265.809 97.5,266C 96.6195,266.708 95.9528,267.542 95.5,268.5C 90.1816,269.629 84.8482,270.629 79.5,271.5C 81.3819,270.249 83.3819,269.082 85.5,268C 91.5889,266.748 97.5889,265.582 103.5,264.5 Z"/></g>
<g><path style="opacity:1" fill="#728c84" d="M 111.5,245.5 C 112.089,250.158 113.422,254.491 115.5,258.5C 116.344,262.874 117.344,267.207 118.5,271.5C 121.684,273.414 125.351,274.08 129.5,273.5C 129.5,273.833 129.5,274.167 129.5,274.5C 125.452,274.395 121.452,274.728 117.5,275.5C 117.448,272.654 116.448,270.32 114.5,268.5C 113.5,268.5 112.5,268.5 111.5,268.5C 112.23,267.288 113.23,266.288 114.5,265.5C 112.54,264.481 110.54,264.481 108.5,265.5C 108.833,264.833 109.167,264.167 109.5,263.5C 111.483,263.843 112.817,263.176 113.5,261.5C 111.963,256.222 110.63,250.888 109.5,245.5C 108.167,245.5 106.833,245.5 105.5,245.5C 104.5,245.5 103.5,245.5 102.5,245.5C 105.017,243.327 108.017,242.327 111.5,242.5C 111.5,243.5 111.5,244.5 111.5,245.5 Z"/></g>
<g><path style="opacity:1" fill="#c6d390" d="M 111.5,268.5 C 112.5,268.5 113.5,268.5 114.5,268.5C 114.389,269.117 114.056,269.617 113.5,270C 107.947,270.557 102.614,271.724 97.5,273.5C 97.5,272.833 97.5,272.167 97.5,271.5C 102.02,269.948 106.687,268.948 111.5,268.5 Z"/></g>
<g><path style="opacity:1" fill="#c3c7c3" d="M 332.5,263.5 C 325.891,267.661 318.558,269.994 310.5,270.5C 311.913,269.065 313.58,268.065 315.5,267.5C 321.351,266.914 327.018,265.581 332.5,263.5 Z"/></g>
<g><path style="opacity:1" fill="#fbfaf3" d="M 114.5,268.5 C 116.448,270.32 117.448,272.654 117.5,275.5C 117.5,276.167 117.5,276.833 117.5,277.5C 108.728,279.426 100.395,282.093 92.5,285.5C 90.1432,285.337 87.8098,285.503 85.5,286C 78.323,287.746 71.323,289.912 64.5,292.5C 63.7063,289.198 63.0396,285.865 62.5,282.5C 74.1889,280.397 85.5223,277.397 96.5,273.5C 96.8333,273.5 97.1667,273.5 97.5,273.5C 102.614,271.724 107.947,270.557 113.5,270C 114.056,269.617 114.389,269.117 114.5,268.5 Z"/></g>
<g><path style="opacity:1" fill="#576657" d="M 315.5,267.5 C 313.58,268.065 311.913,269.065 310.5,270.5C 307.721,270.279 305.054,270.612 302.5,271.5C 274.831,271.667 247.165,271.5 219.5,271C 213.319,270.828 207.319,270.328 201.5,269.5C 236.671,269.832 271.671,269.498 306.5,268.5C 309.482,268.037 312.482,267.704 315.5,267.5 Z"/></g>
<g><path style="opacity:1" fill="#c6c9c6" d="M 200.5,269.5 C 200.833,269.5 201.167,269.5 201.5,269.5C 207.319,270.328 213.319,270.828 219.5,271C 247.165,271.5 274.831,271.667 302.5,271.5C 268.671,272.498 234.671,272.832 200.5,272.5C 200.5,271.5 200.5,270.5 200.5,269.5 Z"/></g>
<g><path style="opacity:1" fill="#c7d492" d="M 79.5,271.5 C 74.3547,273.664 69.0213,275.664 63.5,277.5C 62.209,277.737 61.209,277.404 60.5,276.5C 66.297,273.246 72.6304,271.579 79.5,271.5 Z"/></g>
<g><path style="opacity:1" fill="#7dae8c" d="M 97.5,271.5 C 97.5,272.167 97.5,272.833 97.5,273.5C 97.1667,273.5 96.8333,273.5 96.5,273.5C 94.0971,273.448 91.7638,273.781 89.5,274.5C 89.6107,273.883 89.944,273.383 90.5,273C 92.8659,272.56 95.1992,272.06 97.5,271.5 Z"/></g>
<g><path style="opacity:1" fill="#20a862" d="M 153.5,271.5 C 154.919,272.451 156.585,272.784 158.5,272.5C 154.366,273.485 150.032,273.818 145.5,273.5C 147.961,272.469 150.627,271.802 153.5,271.5 Z"/></g>
<g><path style="opacity:1" fill="#54715b" d="M 201.5,257.5 C 202.167,257.5 202.833,257.5 203.5,257.5C 203.011,258.995 202.345,260.329 201.5,261.5C 193.486,264.667 185.486,268.167 177.5,272C 171.954,272.369 166.62,273.203 161.5,274.5C 150.833,274.5 140.167,274.5 129.5,274.5C 129.5,274.167 129.5,273.833 129.5,273.5C 134.833,273.5 140.167,273.5 145.5,273.5C 150.032,273.818 154.366,273.485 158.5,272.5C 174.524,271.851 188.857,266.851 201.5,257.5 Z"/></g>
<g><path style="opacity:1" fill="#2592c8" d="M 111.5,268.5 C 106.687,268.948 102.02,269.948 97.5,271.5C 95.1992,272.06 92.8659,272.56 90.5,273C 89.944,273.383 89.6107,273.883 89.5,274.5C 81.4286,276.288 73.4286,278.288 65.5,280.5C 61.6266,280.666 60.9599,279.666 63.5,277.5C 69.0213,275.664 74.3547,273.664 79.5,271.5C 84.8482,270.629 90.1816,269.629 95.5,268.5C 99.586,266.759 103.919,265.759 108.5,265.5C 110.54,264.481 112.54,264.481 114.5,265.5C 113.23,266.288 112.23,267.288 111.5,268.5 Z"/></g>
<g><path style="opacity:1" fill="#b5c783" d="M 96.5,273.5 C 85.5223,277.397 74.1889,280.397 62.5,282.5C 63.5,281.833 64.5,281.167 65.5,280.5C 73.4286,278.288 81.4286,276.288 89.5,274.5C 91.7638,273.781 94.0971,273.448 96.5,273.5 Z"/></g>
<g><path style="opacity:1" fill="#4e989e" d="M 118.5,279.5 C 119.451,280.919 119.784,282.585 119.5,284.5C 117.5,284.5 115.5,284.5 113.5,284.5C 114.919,283.549 116.585,283.216 118.5,283.5C 118.719,282.325 118.386,281.325 117.5,280.5C 116.583,281.127 115.583,281.461 114.5,281.5C 115.183,279.824 116.517,279.157 118.5,279.5 Z"/></g>
<g><path style="opacity:1" fill="#c6d28e" d="M 117.5,277.5 C 118.338,277.842 118.672,278.508 118.5,279.5C 116.517,279.157 115.183,279.824 114.5,281.5C 107.31,283.417 99.9763,284.751 92.5,285.5C 100.395,282.093 108.728,279.426 117.5,277.5 Z"/></g>
<g><path style="opacity:1" fill="#a0a29f" d="M 86.5,278.5 C 87.9663,279.347 88.7996,280.68 89,282.5C 89.4828,281.552 89.6495,280.552 89.5,279.5C 91.9424,279.354 92.6091,280.187 91.5,282C 92.1667,282.333 92.8333,282.667 93.5,283C 91.7818,283.346 90.1151,283.846 88.5,284.5C 87.7492,283.624 87.2492,282.624 87,281.5C 86.7508,282.624 86.2508,283.624 85.5,284.5C 85.1667,284 84.8333,283.5 84.5,283C 85.4138,281.594 86.0805,280.094 86.5,278.5 Z"/></g>
<g><path style="opacity:1" fill="#2c92c5" d="M 113.5,284.5 C 111.928,285.687 110.261,286.687 108.5,287.5C 94.9209,290.644 81.2542,293.977 67.5,297.5C 65.9519,297.179 65.2852,296.179 65.5,294.5C 67.099,294.768 68.4324,294.434 69.5,293.5C 77.4493,291.56 85.116,288.894 92.5,285.5C 99.9763,284.751 107.31,283.417 114.5,281.5C 115.583,281.461 116.583,281.127 117.5,280.5C 118.386,281.325 118.719,282.325 118.5,283.5C 116.585,283.216 114.919,283.549 113.5,284.5 Z"/></g>
<g><path style="opacity:1" fill="#c7d38d" d="M 113.5,284.5 C 115.5,284.5 117.5,284.5 119.5,284.5C 119.03,285.693 118.03,286.36 116.5,286.5C 113.86,287.095 111.193,287.428 108.5,287.5C 110.261,286.687 111.928,285.687 113.5,284.5 Z"/></g>
<g><path style="opacity:1" fill="#969a96" d="M 129.5,274.5 C 140.167,274.5 150.833,274.5 161.5,274.5C 148.344,275.496 135.01,275.829 121.5,275.5C 122.356,281.962 123.856,288.296 126,294.5C 128.913,302.917 126.08,307.583 117.5,308.5C 120.227,307.295 122.727,305.628 125,303.5C 125.667,302.167 125.667,300.833 125,299.5C 124.617,300.056 124.117,300.389 123.5,300.5C 123.083,294.83 121.749,289.497 119.5,284.5C 119.784,282.585 119.451,280.919 118.5,279.5C 118.672,278.508 118.338,277.842 117.5,277.5C 117.5,276.833 117.5,276.167 117.5,275.5C 121.452,274.728 125.452,274.395 129.5,274.5 Z"/></g>
<g><path style="opacity:1" fill="#f6f6f4" d="M 119.5,284.5 C 121.749,289.497 123.083,294.83 123.5,300.5C 122.657,302.173 121.324,303.34 119.5,304C 112.957,305.881 106.623,308.215 100.5,311C 93.0954,312.181 85.762,313.681 78.5,315.5C 75.8806,315.768 73.3806,315.435 71,314.5C 69.2602,309.965 68.0935,305.298 67.5,300.5C 80.2965,295.461 93.6298,291.628 107.5,289C 108.056,288.617 108.389,288.117 108.5,287.5C 111.193,287.428 113.86,287.095 116.5,286.5C 118.03,286.36 119.03,285.693 119.5,284.5 Z"/></g>
<g><path style="opacity:1" fill="#7c827f" d="M 56.5,262.5 C 57.7179,267.293 59.0512,271.96 60.5,276.5C 61.209,277.404 62.209,277.737 63.5,277.5C 60.9599,279.666 61.6266,280.666 65.5,280.5C 64.5,281.167 63.5,281.833 62.5,282.5C 63.0396,285.865 63.7063,289.198 64.5,292.5C 65.9187,293.451 67.5853,293.784 69.5,293.5C 68.4324,294.434 67.099,294.768 65.5,294.5C 65.2852,296.179 65.9519,297.179 67.5,297.5C 66.375,298.652 66.375,299.652 67.5,300.5C 68.0935,305.298 69.2602,309.965 71,314.5C 73.3806,315.435 75.8806,315.768 78.5,315.5C 70.4584,317.302 70.7917,318.302 79.5,318.5C 77.0336,319.634 74.367,319.801 71.5,319C 69.6997,317.188 68.0331,315.355 66.5,313.5C 62.3671,296.437 58.0337,279.437 53.5,262.5C 53.281,261.325 53.6143,260.325 54.5,259.5C 55.1757,260.602 55.8423,261.602 56.5,262.5 Z"/></g>
<g><path style="opacity:1" fill="#c5d393" d="M 92.5,285.5 C 85.116,288.894 77.4493,291.56 69.5,293.5C 67.5853,293.784 65.9187,293.451 64.5,292.5C 71.323,289.912 78.323,287.746 85.5,286C 87.8098,285.503 90.1432,285.337 92.5,285.5 Z"/></g>
<g><path style="opacity:1" fill="#b6c986" d="M 108.5,287.5 C 108.389,288.117 108.056,288.617 107.5,289C 93.6298,291.628 80.2965,295.461 67.5,300.5C 66.375,299.652 66.375,298.652 67.5,297.5C 81.2542,293.977 94.9209,290.644 108.5,287.5 Z"/></g>
<g><path style="opacity:1" fill="#595e59" d="M 107.5,293.5 C 110.148,295.566 112.482,298.066 114.5,301C 110.775,300.102 108.442,297.602 107.5,293.5 Z"/></g>
<g><path style="opacity:1" fill="#737672" d="M 78.5,300.5 C 79.209,299.596 80.209,299.263 81.5,299.5C 81.4397,302.021 82.1064,304.354 83.5,306.5C 83.4435,307.737 82.9435,308.737 82,309.5C 81.8371,307.324 81.0037,305.491 79.5,304C 80.7996,302.421 80.4663,301.255 78.5,300.5 Z"/></g>
<g><path style="opacity:1" fill="#5e615e" d="M 75.5,300.5 C 77.7531,303.513 78.4197,306.846 77.5,310.5C 76.4025,307.247 75.7358,303.914 75.5,300.5 Z"/></g>
<g><path style="opacity:1" fill="#5d625d" d="M 117.5,308.5 C 113.715,309.368 110.048,310.701 106.5,312.5C 101.4,314.744 96.0668,316.077 90.5,316.5C 86.7785,316.911 83.1119,317.578 79.5,318.5C 70.7917,318.302 70.4584,317.302 78.5,315.5C 85.762,313.681 93.0954,312.181 100.5,311C 106.623,308.215 112.957,305.881 119.5,304C 121.324,303.34 122.657,302.173 123.5,300.5C 124.117,300.389 124.617,300.056 125,299.5C 125.667,300.833 125.667,302.167 125,303.5C 122.727,305.628 120.227,307.295 117.5,308.5 Z"/></g>
<g><path style="opacity:1" fill="#abafab" d="M 106.5,312.5 C 101.968,316.155 96.6351,317.488 90.5,316.5C 96.0668,316.077 101.4,314.744 106.5,312.5 Z"/></g>
<g><path style="opacity:1" fill="#d1d3d1" d="M 66.5,313.5 C 68.0331,315.355 69.6997,317.188 71.5,319C 74.367,319.801 77.0336,319.634 79.5,318.5C 83.1119,317.578 86.7785,316.911 90.5,316.5C 85.5185,318.437 80.3518,320.104 75,321.5C 72.0911,321.269 69.5911,320.103 67.5,318C 66.6198,316.644 66.2865,315.144 66.5,313.5 Z"/></g>
</svg>
