<?xml version="1.0" encoding="UTF-8"?>
<svg xmlns="http://www.w3.org/2000/svg" version="1.2" baseProfile="tiny-ps" width="512" height="512" viewBox="0 0 512 512">
  <title>ComiDólar BIMI Logo</title>
  <style>
    .a,.b{opacity:.99;fill:#acb6a3}.b{fill:#e0e3df}.c,.d{opacity:1;fill:#040304}.d{fill:#7f8b7d}.e,.f,.g,.i{opacity:1;fill:#2c342e}.f,.g,.i{fill:#5e6c56}.g,.i{fill:#fbf9fa}.i{fill:#746048}
  </style>
  <path d="m241 57 9-1v1zm21 0v-1l8 1zM56 245l1-5v5z" class="a"/>
  <path d="m57 272-1-5h1z" class="b"/>
  <path d="m59 224 5-26 17-40 19-28 24-25 24-18 28-15 29-10 36-5h29l14 1 4 1 29 6 35 15 30 20 29 29 22 33 16 40 6 32 1 33-5 35-10 31-15 29-21 28-31 28-34 20-38 13-33 4h-27l-28-3-33-10-33-17-24-18-33-37-18-32-12-35-4-31v-32l1-12z" class="c"/>
  <path d="M250 57v-1h12v1z" class="d"/>
  <path d="M56 259v-6h1v6z" class="e"/>
  <path d="M56 253v-8h1v8zm0 14v-8h1v8z" class="f"/>
  <path d="m248 72 11-1v1z" class="a"/>
  <path d="m234 73 3-1h29l33 4 28 9 27 14 23 17 19 19 20 28 17 39 6 33 1 4v35l-8 39-15 34-17 25-22 23-31 22-37 16-33 6-4 1h-35l-3-1-26-4-37-14-31-20-26-25-19-27-13-27-9-32-2-25-1-10 1-18 1-3 2-17 10-32 12-24 18-25 21-21 34-23 35-14z" class="g"/>
  <path d="M259 72v-1l7 1z" class="f"/>
  <path fill-rule="evenodd" d="m253 95 3-6h3l-2 6zm-47 4 3-4 14-2-2 13 5 4-1 3-2 4-5-3-7 1v5l8 1 1 5-3 1h-4l1 4-7-1-1 10-3 2-2-18-7 17-6-2-2-10-7-2 2 13h-3v-5l-3-3v7l-8-3-3-8-1-13 4-6 5-4 13 3v-5l18-4-1 8 2-1v7l4 1-1-9zm49 21-3-7-3 4-5-5 4-15 3 1-1 6 9 3zm45-8 2-3 2 2v2zm-21 3 5 1 3-6 4 4h4v-4l4 3-1 5-4 2-14 1zm-4 18-1-8 5 1 1-3 4 2v6zm-18 30 2-1 2 1-2 6h-4v-4zm-25 6 3-4h10l1 1-1 5-11 2zm26 13 10-8v1l-9 7zm137 5 8-7h3l-1 4-6 6-4-1zm-296 2 2 3 7-6 13 4-2 5-19 4-6-3 3-8zm322 28-2-6h3l1 6zm-286 79 2-5 5 3 5 15v19l-3 5-6-3zm274 20v-3h4l3 7-3 4-5 1v-2zm-33 41 1-26h5l2-6 7 4 9-8v14l6-4 2 3-22 35-18 18-13 8-3-3 1-3 8-3v-8l-2-9 1-6 9-3 7 5zm-191-29v-3l11 3 1 3-8-1 2 6-3 1-3-4 2 17h-3l-4-21zm86 11-10-13h1l5 7h9l6 6-5 1-3 2h-3zm-44 9 2-4 9 6v9l4 1 2 8-1 5-6-4-5-3 3-9-3-1 1-6zm-22-2 6 1v9l7 6-1 5-2 3 5 4 3-3h7l2 5 5-1 4 4v1l-6 7-12-10-2 1 2 2-5-1-11-1-9-7v-5l7-4 5 1-14-11zm54 41-3-5 10-6 10 1-2 3 4 3v2l-5-2 1 7 9 2-1-4 5 1v5l-16-3-4 1h4l8 2-4 12h-7l-2 3-1-15 1-5zm-49-4 8-4 1 6-7 1zm11 6 4-6 2 4 8 2h2l-3 8h-9v3l4 10 8 1-1 3h-16l1-6-7-3 6-7zm-19 0 15 4-2 4h-5l5 18-4 1zm46 10 6-2 6 2-2 10-6 2 1 8 4 1-3-7 5-1 13 2 2 4 6-2h3v3l-1 4-30 3-1-4zm35 14 3-1-1-11 8 2 2 8-6 3zm25-5v-5l5-2 1 1-2 6zm-130-1 2-1 14 1h3l1 4-2 3h-6zm59 12h4l2-4 4 7v4l-10-1z" class="a"/>
  <path d="m204 106-2 1 1-8h3l1 6zm109-5 15 86-4-2-15-84zm-14 12 1-1 4 1 4 6v5l-4 3-20 4v-6l-4-2v-2l14-1 4-2zm-79 13-1-5-8-1v-5l7-1 5 3v9zm-6 5-1-4h4l46 33-2 3-2-1-42-29zm54 44h8l-8 6-7 21h-6l-1-6 5-14zm-93 12 17-6 1 2-16 8-15 14-11 19-6 25 1 27 9 24 11 13 19 12v3l-24-11-1-1-8-8-11-17-3-12-2-30 11-35 14-16zm224 3 6-6 2 1-36 53-2-5zm-280 5 56-9v1l-11 4-64 11v-3zm136 36 2-14h4v15zm-51 42 14-4-10 6h-5zm-100 53 32-47h1l1 6-7 6-2 6-8 11-16 20zm153-26-2-16 9 1 5 35 7 13h-9l-5-7zm152 13-83 14 8-4 79-14v4zm-222 37-2-17 3 4 13 74h-3l-1-4zm88 12v-19h6l2 6v9l-1 6-3 2zm-78 1 3-5 5 4-7 4zm84 11 1-2 46 32-2 2zm-66 41-5-18h5l2-4 3 5-6 7 7 3-1 6z" class="b"/>
  <path d="m261 163 2-3 16 10-11 4-10 8-5 13-14-15-16-3 11-4 11-2 10-2h4zm-6 39h6v15h-4l-1-5zm0 31v-2l6 1v13l3 40-9-1-3-29v-10zm-25 23 21-9v9l4 40-15-22-11-6h-18l-7 4-12 4-9-3-7-9v-10l4-5h5l26 6zm10 78 13-3 5-7 3 2 10 13-18 3-3 6 32 24-1 2-55-36-2-2 2-1z" class="g"/>
  <path d="m352 209 4-15 7 1v16l4 4v6l-4 3zm-24 123 16-3 2 1 1 19-9 2-5 6-8-1 4-21z" class="c"/>
  <path fill-rule="evenodd" d="m185 103 4-5 21-7 36-6h22l30 5 10 6 1 5 15 84 4 2-15-86 2-4h5l46 28 29 31 11 19v5h-3l-7-17-17-20-18-18-24-15-22-11 13 70 2 7 3 15 6 5 13 13 11 15 3 5 4-2 25-38 4 1-30 43 2 5 36-53 7 1 8 25h-3l-8-24-9 11-30 43 3 6-1 26-14 26-7 7 2 7 59-9 2-3 4-4 1-8h3l-4 17-7 3-79 14-8 4 83-14v3l-9 2-26 5-30 6-16 3-29 6-17 1-6-6-7-13-5-35-3-40 7 6 8 67 6 9 9 4 24-5 26-17 19-22 8-21-1-17-13-27-18-20-21-15-15-6-16-1-11 8-5 14-7 4v-4l7-21 8-6h-8v-1l11-4-16-10-46-33 3-1h3l5 2 3 1 1 6 21 13 14 10 6 4 8 3 6 7 19 3 15 8-4-17-9-47-4-6v-2h3l-3-15-21-6-20-1h-20l-20 4-14 2-3 4h-3zm-88 85 10-21 18-25 23-22 19-11-4 6-6 4-10 6-22 22-23 38-3 4zm120-52v-3l42 29-2 1-6-3-5-4-13-9-11-7zm29 30 5-1h4v4l-10 2zm-45 13 11-1 1-6 19-3 2 4-11 4 16 3 14 15 1 1 1 6 1 10-4-1-9-17-10-8-25-1-11 3-14 7-17 16-10 19-4 18 2 32 5 13 12 15 27 14 41 4 7-2 6-8-2-14-8-15-13-10-20 4-24-1-11-9-3-15 4-8 10-6 13-1 36 6 15-14h6l-3 12-1 2-21 9-19-1-26-6h-5l-4 5v10l7 9 9 3 12-4v1l-1 2h5l10-6 3-1h8l11 6 15 22 2 4 5 26h-1l-3-2-5 7-13 3-14 1-2 1 2 2 55 36 45 32v4l-6 4-38 9 1-4 9-3 5-1 12-2-1-3 6-1 9-1-5-4-4-2-1-1-22-16-9-6-6-2-3-5-13-7-22-15-9-6-11-8 1-3-22-2-1-3-11-3-19-12-11-13-9-24-1-27 6-25 11-19 15-14 16-8-1-2-4-1-13 6-56 9 2-5 60-11 8-2 6-1v-3l5 3v2l-3 1zm-101 23 64-11-3 3-25 4 1 8-13 5h-7l-2-8-21 3-2 5-6 33v24l3 23 9 30 5-1 2-7 10-15 18-23h3v4l-32 47h-6l-4-7-11-45v-39l3-17 4-12zm325 47-4-32h2l5 25v27l-3 12-1-14zm-296 48 2-6 7-6-5 10zm-24 31 16-20v5l-13 20 1 6 14 19 6 7 8 10h6l-2 3h3l7 9h4l3 5 22 14-2 1-30-18-25-24-18-27zm303-3 5-1-5 10-2-3zm-220 12 3-1 3 12 3 15 1 3v5l3 15v3l1 3 3 22 6 2 16 4 10-1v6l-31-6-5-8zm94 35-32-24 3-6 18-3v3l-19 5 23 15 4 4 3-2 4 7 34 22 15 10 17-11 3 3-16 11-11-2zm-94 4-4-26h3l10 57h-3zm59 50v-4h4l1 4z" style="opacity:1;fill:#7cdc95"/>
  <path d="M328 169h2l-2-35 3-15 6-9 24 15 13 13-1 33-3 3-12 4h-4l-3-5h-15l-6 3zm-147-29-2-13 7 2 2 10zm-6-4v-4l3 3zm47 4-5 4v11l3 5-4 1-3-4v-14l4-7zm51 22 1-24 12-1 1 24-6 4zm-20-14v-8h16l-2 18zm142 39-5-9-13-5 2-30 17 20 7 17zm-160-22-4-2 2-16 13 9-1 9zm16 0v-5l6 3-2 2zm149 153 9-2-1 7-8-2zm-118 21 17-1v19l-16 1v-9l2-6-8-3z" class="i"/>
  <path fill-rule="evenodd" d="M252 89h4l-3 6-2 3-3-1v-3zm32 42 20-4 4-3v-5l9 47-4 2-2 6-5 1-19-3-6-7 6-4-1-24-12 1-1 24-6-4 2-18h-16v8l-21-13-1-6 28 4h16zm-81 11 3-2 1-10 7 1 3 2v3l-4 7v14l3 4 4-1-3-5v-11l5-4 11 7-2 16 4 2-3 4-19 3-1 6-11 1-1-1v-2l3-3zm42 23 1-9 5 4v5l-5 1zM99 189l3-4 6 1-7 6zm234 2 7-5-1 10zm-169 0 11-4-14 11v-4zm87 65 1-1 3 29 2 16-2-4zm-47 16 7-4h10l-3 1-14 4zm-75 25 4-2 2 1 3 34-14-2-3-15v-5zm18 12 5-1 8 8 1 1 2 7-6 9-8 2-5-2 3-5zm227 14 26-5v3l-9 8-7-4-2 6h-5l-1 26-5-1v-7zm-266 10 12-2 6 2 1 20-4 5-14-19zm31 19-4-4 2-11 13 3v8l-2 4zm62-11 7-1-3 4zm73 1 3-2 8 3-2 6-2-6h-6zm35 12 3-9 3 2-1 7zm-87 2 3 1 2-9 6 2-1 6 3 1-3 9-10-8zm127-6h14l1 5 3-1 2 3v3l-9 3-3-7h-8zm-132 17 6-2v6l-3 3-5-4zm43 5-2-2 2-5 13 7 3 5-10-1zm-16-4 8-2 1 3-7 5-3-1zm107 11v-10h8l2 9zm-183-2 17-1h3l6 31-14-1-22-14-3-5h-4l-7-9 16 1zm33 9 9-3 2 3 7-1 2 4-1 9-3-5-15-4h-1zm86 3 4-4 22 16-5 2v7l-12-10-1-8-3 3-5-1zm-53 8 3-8h7l3 4 6-1 1 5-6 2-1 3-8 1 4 12-2 4h-4l-10 1v-1l4-5h5l1-3 1-5zm37-5h-4l4-1zm-5 17 2-3h7l-1 5zm23 5 6-3 2 4-5 1z" class="d"/>
  <path d="m402 198 9-11 8 24 2 6 4 32h-9l-12 8 1 4h11l8 6 1 14-1 8h-3l-1 8-4 4-7-12-23 2-19 8h-7l14-26 1-26h4l10-15 22-18v-14zM86 244l6-33 5 10 8 2 42-9-11 35 2 30h-2v-4h-3l-18 23-3-5h-9l-4 4-1 12 7 4-2 7-5 1-9-30-3-23 15-9v-9z" style="opacity:1;fill:#47aa68"/>
  <path d="m223 93 20-4-2 5h7v3l-4 15 5 5 3-4 3 7v7l4 6-28-4-3-1-3-15 1-3 1-16zm56 22v-5l-5 4-5-2-6-23 20 1 21 6 3 15h-3l-2-2-2 3-1 1-4-3v4h-4l-4-4-3 6zm49 54-13-70 22 11-6 9-3 15 2 35zm-226 16 23-38 22-22 10-6v7l3 3 4-1 3 8 8 3v-3l3-1v5h3l7-1 6 2 1 24 1 6-1 2v3l-6 1-8 2-60 11-13-4zm228-9 6-3h15l3 5h4l12-4 3-3 1-33 5 5-2 30 13 5 5 9v2l-25 38-4 2-3-5 4-3v-6l-4-4v-16l-7-1-4 15-13-13 1-10-7 5zm14 153 15-3-2 5-11-1zm-153 7-2-6 8 1 22 2-1 3 11 8-2 4-2 9-3-1-6-11-5 2-6-1v-2l3-4-7 1-7 7zm108 2 29-6 1 3h-12l-4 3-1 7-3 9-10 3zm-24 24-23-15 19-5h3l1 1zm-136-10h9l2-4h5l1 4 17-1 4 6h4l3 6h-5v4l6 9-17 1-7-3-1 5-16-1h-3l2-3h-6l-8-10 5-1zm186 4 8 1 5-6 9-2 2 1v6l2 13v10l2 10-1 3-17 11-15-10zm38-6 8-1v7l-2 1-2-3-3 1zm-145 12 4-4 10 8 5 3v6l-5 1-2-5h-7v-6l-6 2zm-17 24-3-15 9 7 11 1-8 4zm40-7 3-1 2 4h3v-4l8 2 3-8 6 4-10 6 3 5 6 7 1 15 8 2-2 3-13-2-1-3 2-10-6-2-1-5-6 1-3-4-3-9zm-23 0 5 1-2-2 2-1 12 10v2l-8-2-2-4-4 6-2-4zm60 4-4-3 2-3 6 2zm-67 33-6-2-3-22h1zm81-21 3-3 1 8 12 10 1 3-12 2-2-4-2-8zm-49 20-4-12 8-1 1-3 3 23h-4zm69-7 2-6 4 2-4 5zm-90 6h9l-4 5zm58 2-1-3h4l6 1 3 2-9 3v-3z" class="e"/>
  <path d="m261 206 7-4 5-14 11-8 16 1 15 6 21 15 18 20 13 27 1 17-8 21-19 22-26 17-24 5-9-4-6-9-8-67-7-6v-28zm-6 27h-6l-15 14-36-6-13 1-10 6-4 8 3 15 11 9 24 1 20-4 13 10 8 15 2 14-6 8-7 2-41-4-27-14-12-15-5-13-2-32 4-18 10-19 17-16 14-7 11-3 25 1 10 8 9 17 4 1 1 5-2 14zM92 211l2-5 21-3 2 8h7l13-5-1-8 25-4v4l-14 16-42 9-8-2zm283 36-3-6 30-43 9 2v14l-22 18-10 15zm-15 52h7l19-8 23-2 7 12-2 3-59 9-2-7zm-255 14-7-4 1-12 4-4h9l3 5z" style="opacity:1;fill:#3dcf6c"/>
  <path fill-rule="evenodd" d="M259 89h4l6 23 5 2 5-4v5l1 6v2l-1 3-5-1 1 8h-16l-4-6v-7l4-13-9-3 1-6 2-3h4zm-11 5h-7l2-5h9zm-22 16-5-4 2-13 4 1zm-22-4 3-1 1 9-4-1zm19 11 2-4 3 15-5-2zm-66 2 6-4 1 13-4 1-3-3zm37 22 7-17 2 18v31l-3 3-5-3 1-2-1-6zm112 34 5-1 2-6 4-2 4 17zm-105 4h-4l3-1zm-26 7 13-6 4 1-17 6zm78 9 5-13h1l-5 14zM86 268v-24l15 6v9zm165-21 1-2v10l-1 1zm173 20-8-6h-11l-1-4 12-8h9zm-286 18-1-6h1l3 12 11 17-5 1-5-15-5-3-2 5-2-1zm-30 48 13-20 3 15 14 2 6 3 5 2 8-2 6-9-2-7 24 11-5 1 4 21 4 26h-3l-6-9v-4h5l-3-6h-4l-4-6-17 1-1-4h-5v-8l-13-3-2 11 4 4-5 12-5 1-6-7 4-5-1-20-6-2zm298-2-6 4v-14l8 2v2zm-47-5 15-3-3 26-8 1h-14l-2-1-1-19 11 1zm-47 19 1-7 4-3h12l-4 21-5 37-34-22-4-7 1-6 16-1 10-3h5l1-7zm-118 3 7-7 4 3v2l-9 6 14 11-5-1-5-4-3 5zm17-1 5-2 6 11v2l-4 4-7-6zm33 21-2-8-4-1v-9l22 15-2 5 2 2-3 8-8-2v4h-3l-2-4-3 1-4-4v-6l6 4 3 1 7-5-1-3zm107 1-2-13h8l3 7-1 6zm18-12 2-1 5 1v8l-7-5zm-209 22 1-5 7 3zm191 0 10-1v8l-8 3zm-73 4 4-4 9 6-4 4-5-1 1 4-9-2-1-7 5 2zm-43 4 6-7 3 9h-9zm30 7-6-7 7 2zm-63-2-1-3h1l1 3zm69 0v-1l16 3 5 1 1 8-8-2 1 11-3 1h-4l1 3-6 2-2-4 2-3 1-5 4-12zm-34 19-8-1-4-10v-3h9l4 9zm77-2 4-5 5 4zm-6 1v-2h4l2 1zm-49 2-5 1 3 7-4-1-1-8 6-2zm-44 3 5-1h2l5 5v1l-16-4z" class="f"/>
  <path d="M299 112h1v1h-1z" class="a"/>
  <path d="M308 253v-6l4-1 8 10v8l-4 6-6 1-1-5 2-8z" class="b"/>
  <path d="M296 138h8l2 26h-15z" class="i"/>
  <path d="m275 93 8 12-7 2-3-3zm12 17-4-1 4-5zm21 145v-2l3 5-2 8zm67 112v8l-7-2 1-4z" class="d"/>
  <path d="m256 403 3 3-3 1z" class="e"/>
  <path d="M160 151h14l5 4-8 14h-8l-4-10zm0 165h1v1h-1zm126 87 4 3-3 1z" class="f"/>
</svg>
